<svg id="svg" version="1.1" width="400" height="753.1914893617021" viewBox="0 0 400 753.1914893617021" xmlns="http://www.w3.org/2000/svg" xmlns:xlink="http://www.w3.org/1999/xlink" ><g id="svgg"><path id="path0" d="M257.487 53.202 L 253.174 53.534 251.440 55.423 C 249.789 57.220,249.693 57.460,249.448 60.403 C 249.306 62.104,249.192 174.894,249.194 311.048 C 249.197 549.929,249.133 564.420,248.048 568.899 C 247.687 570.388,245.754 574.417,245.216 574.800 C 244.552 575.274,240.704 581.366,240.337 582.526 C 239.324 585.728,238.173 588.063,236.748 589.804 C 234.547 592.495,230.330 596.343,228.826 597.033 C 227.520 597.633,226.096 598.839,222.661 602.253 C 220.922 603.982,219.763 604.653,216.984 605.541 C 215.670 605.961,213.917 606.685,213.090 607.149 C 207.441 610.322,198.112 611.533,184.666 610.839 C 173.752 610.275,170.961 609.664,165.138 606.565 C 164.554 606.254,163.792 606.000,163.445 606.000 C 161.485 606.000,156.038 602.516,152.923 599.269 C 152.001 598.308,150.403 597.073,149.374 596.525 C 147.166 595.349,145.221 593.490,143.699 591.098 C 143.095 590.148,141.790 588.566,140.800 587.582 C 137.649 584.450,136.751 583.085,135.409 579.386 C 134.854 577.856,134.400 576.206,134.400 575.721 C 134.400 575.235,134.237 574.424,134.037 573.919 C 131.858 568.408,132.000 573.247,132.000 504.415 C 132.000 431.947,132.415 439.099,128.083 436.939 C 122.895 434.351,109.563 435.209,107.288 438.277 L 105.977 440.046 105.981 499.723 C 105.985 541.913,106.116 559.986,106.429 561.400 C 107.425 565.891,108.044 567.955,109.186 570.600 C 109.566 571.480,110.084 573.325,110.338 574.700 C 110.592 576.075,111.004 578.325,111.254 579.700 C 112.431 586.189,114.406 590.510,117.877 594.200 C 118.651 595.022,121.200 600.041,121.200 600.741 C 121.200 600.957,121.335 601.193,121.500 601.267 C 121.799 601.399,127.839 608.087,128.600 609.128 C 129.007 609.685,133.391 613.979,136.985 617.342 C 138.077 618.364,139.114 619.200,139.290 619.200 C 139.574 619.200,141.519 620.014,144.400 621.340 C 144.950 621.593,145.718 622.086,146.107 622.436 C 146.495 622.786,147.305 623.319,147.907 623.622 C 148.508 623.924,150.285 625.042,151.856 626.106 C 154.521 627.910,158.316 629.574,161.600 630.379 C 163.302 630.796,168.408 632.610,170.600 633.577 C 175.255 635.630,177.960 635.974,190.200 636.068 L 201.800 636.158 207.383 634.253 C 210.453 633.205,213.873 631.935,214.983 631.431 C 216.092 630.926,217.720 630.285,218.600 630.006 C 219.480 629.726,220.613 629.341,221.119 629.149 C 221.624 628.957,222.443 628.800,222.939 628.800 C 223.434 628.800,224.011 628.657,224.220 628.482 C 224.429 628.307,225.318 627.919,226.196 627.621 C 227.074 627.323,228.244 626.604,228.796 626.024 C 229.348 625.444,230.430 624.531,231.200 623.995 C 231.970 623.460,232.918 622.731,233.307 622.375 C 233.695 622.019,234.415 621.537,234.907 621.304 C 237.358 620.140,239.634 619.200,240.001 619.200 C 240.787 619.200,243.178 617.386,244.883 615.496 C 245.827 614.449,248.220 611.896,250.200 609.822 C 252.180 607.749,254.438 605.366,255.218 604.526 C 255.997 603.687,256.998 602.730,257.442 602.400 C 258.959 601.272,261.546 597.002,262.410 594.200 C 263.668 590.119,264.627 588.184,266.227 586.498 C 267.008 585.674,267.942 584.370,268.303 583.600 C 268.663 582.830,269.068 582.110,269.202 582.000 C 270.088 581.272,270.847 576.250,271.409 567.400 C 271.535 565.420,271.833 562.180,272.071 560.200 C 272.377 557.661,272.549 483.093,272.655 307.225 L 272.804 57.849 271.727 56.294 C 269.559 53.166,266.520 52.506,257.487 53.202 M327.526 54.392 C 326.469 55.056,325.380 56.142,325.028 56.884 C 324.465 58.071,324.389 82.447,324.255 305.600 C 324.145 487.280,323.985 553.956,323.651 556.600 C 323.400 558.580,323.034 563.530,322.836 567.600 C 322.639 571.670,322.295 575.630,322.073 576.400 C 321.851 577.170,321.381 578.880,321.030 580.200 C 320.288 582.981,320.245 583.088,318.056 587.646 C 317.145 589.541,316.400 591.356,316.400 591.680 C 316.400 592.752,314.751 597.352,313.164 600.708 C 312.304 602.527,311.600 604.246,311.600 604.528 C 311.600 604.809,311.448 605.211,311.262 605.420 C 311.077 605.629,310.509 606.880,310.000 608.200 C 309.491 609.520,308.923 610.771,308.738 610.980 C 308.552 611.189,308.400 611.705,308.400 612.127 C 308.400 614.724,306.550 618.203,303.284 621.748 C 301.460 623.728,299.691 625.990,299.352 626.774 C 297.802 630.371,297.191 631.602,296.625 632.275 C 295.439 633.687,292.025 638.637,290.432 641.255 C 288.859 643.841,285.470 647.308,283.744 648.097 C 283.273 648.312,282.647 648.938,282.353 649.489 C 281.766 650.584,275.742 656.400,275.193 656.400 C 275.005 656.400,273.895 657.351,272.726 658.513 C 271.557 659.676,269.880 661.160,269.000 661.811 C 268.120 662.463,267.310 663.101,267.200 663.230 C 267.090 663.358,265.920 663.960,264.600 664.566 C 263.280 665.173,261.930 665.832,261.600 666.031 C 261.270 666.230,260.100 666.868,259.000 667.449 C 257.900 668.030,256.910 668.626,256.800 668.773 C 256.337 669.394,250.285 673.200,249.761 673.200 C 249.132 673.200,247.726 673.930,246.904 674.683 C 246.266 675.267,237.353 679.600,236.789 679.600 C 236.569 679.600,236.077 679.758,235.695 679.951 C 233.460 681.080,228.992 681.822,221.000 682.391 C 217.646 682.629,214.206 683.099,213.200 683.455 C 204.690 686.466,188.731 687.883,180.167 686.387 C 176.257 685.704,170.885 684.534,165.600 683.216 C 164.830 683.024,162.220 682.666,159.800 682.420 C 148.129 681.237,147.297 680.993,136.200 675.507 C 134.880 674.855,132.780 673.991,131.532 673.587 C 128.699 672.671,127.365 671.964,125.655 670.472 C 123.784 668.840,118.363 665.668,116.055 664.855 C 113.397 663.919,112.497 663.267,108.798 659.598 C 107.025 657.839,105.310 656.400,104.987 656.400 C 104.664 656.400,104.400 656.249,104.400 656.064 C 104.400 655.880,103.971 655.533,103.448 655.295 C 102.924 655.056,101.979 654.130,101.348 653.236 C 100.716 652.342,99.930 651.520,99.600 651.409 C 99.270 651.297,98.233 650.530,97.295 649.703 C 96.357 648.876,95.094 647.816,94.487 647.346 C 93.881 646.876,93.118 645.976,92.792 645.346 C 92.466 644.716,91.785 643.750,91.277 643.200 C 90.770 642.650,90.078 641.742,89.739 641.182 C 89.401 640.622,88.466 639.726,87.662 639.192 C 86.040 638.114,85.698 637.740,82.926 634.005 C 81.867 632.578,80.190 630.579,79.200 629.563 C 77.467 627.784,75.600 624.826,75.600 623.859 C 75.600 622.990,73.486 619.412,71.085 616.218 C 68.121 612.273,67.481 611.127,66.828 608.600 C 66.545 607.500,65.972 605.837,65.556 604.904 C 65.140 603.972,64.800 603.025,64.800 602.800 C 64.800 602.438,64.085 600.699,62.661 597.600 C 62.408 597.050,62.091 596.510,61.956 596.400 C 60.664 595.344,59.627 591.667,59.193 586.600 C 58.507 578.591,57.962 573.340,57.531 570.600 C 57.232 568.702,57.006 547.251,56.829 504.000 C 56.686 468.910,56.531 440.170,56.484 440.134 C 56.438 440.098,55.725 439.327,54.900 438.420 C 52.907 436.231,50.543 435.611,44.154 435.605 C 38.915 435.600,38.420 435.771,36.100 438.386 L 35.201 439.400 35.200 512.779 C 35.200 584.184,35.301 590.971,36.405 593.800 C 36.577 594.240,37.291 596.490,37.991 598.800 C 39.682 604.379,39.954 605.155,40.792 606.800 C 41.496 608.181,42.593 611.287,43.618 614.800 C 44.339 617.271,45.344 619.177,46.676 620.600 C 48.975 623.055,51.102 626.271,51.967 628.600 C 53.642 633.108,57.872 640.342,59.569 641.600 C 59.717 641.710,60.271 642.430,60.800 643.200 C 61.329 643.970,62.965 645.770,64.436 647.200 C 66.724 649.424,68.048 651.184,70.905 655.800 C 71.549 656.841,83.037 668.171,84.600 669.306 C 85.260 669.786,86.149 670.498,86.575 670.889 C 87.002 671.280,87.510 671.600,87.704 671.600 C 87.898 671.600,88.298 671.825,88.593 672.100 C 88.888 672.375,89.895 673.230,90.832 674.000 C 91.769 674.770,93.564 676.435,94.821 677.700 C 96.078 678.965,97.300 680.000,97.535 680.000 C 97.771 680.000,98.377 680.405,98.883 680.900 C 99.389 681.395,100.792 682.608,102.001 683.595 C 103.211 684.581,104.290 685.481,104.400 685.595 C 104.969 686.179,108.124 687.602,110.576 688.380 C 113.548 689.322,117.609 691.774,120.184 694.181 C 121.700 695.598,122.832 696.156,126.780 697.434 C 127.760 697.751,129.830 698.617,131.380 699.358 C 138.423 702.725,141.405 703.755,146.000 704.406 C 147.870 704.671,151.102 705.228,153.182 705.644 C 155.730 706.153,158.731 706.406,162.382 706.417 C 165.362 706.427,170.680 706.724,174.200 707.077 C 183.111 707.971,197.251 707.982,205.707 707.100 C 209.395 706.715,214.271 706.400,216.541 706.400 C 220.111 706.400,226.947 705.659,228.800 705.071 C 229.130 704.966,231.020 704.669,233.000 704.411 C 240.363 703.451,243.731 702.312,250.400 698.530 C 251.170 698.093,253.323 697.336,255.184 696.848 C 258.824 695.894,260.560 694.997,262.863 692.883 C 266.053 689.954,267.463 689.132,271.923 687.599 C 274.415 686.742,278.280 684.426,280.463 682.481 C 281.080 681.931,281.941 681.283,282.376 681.041 C 285.291 679.418,287.577 677.750,288.120 676.850 C 289.051 675.308,291.902 672.504,293.982 671.086 C 294.982 670.404,295.868 669.656,295.950 669.423 C 296.033 669.190,298.103 667.015,300.550 664.588 C 302.998 662.162,305.524 659.410,306.165 658.472 C 307.278 656.846,311.059 653.200,311.633 653.200 C 311.783 653.200,312.676 652.018,313.617 650.574 C 314.558 649.129,315.851 647.387,316.490 646.703 C 317.896 645.199,321.127 640.263,321.644 638.833 C 322.535 636.363,323.725 633.880,324.314 633.257 C 326.573 630.872,329.918 624.903,330.449 622.307 C 331.507 617.142,332.795 612.399,333.684 610.400 C 334.026 609.630,334.547 608.370,334.841 607.600 C 335.135 606.830,336.059 605.074,336.894 603.698 C 337.728 602.322,338.694 600.162,339.040 598.898 C 339.386 597.634,339.847 595.970,340.065 595.200 C 340.673 593.048,341.208 590.440,341.584 587.800 C 341.901 585.568,342.296 583.061,343.188 577.600 C 343.386 576.390,343.932 574.050,344.401 572.400 C 344.870 570.750,345.560 568.320,345.933 567.000 C 346.306 565.680,346.748 564.385,346.915 564.123 C 347.082 563.860,347.218 449.650,347.215 310.323 L 347.211 57.000 345.189 55.100 L 343.166 53.200 336.283 53.208 L 329.400 53.215 327.526 54.392 " stroke="none" fill="#eef2f0" fill-rule="evenodd"></path><path id="path1" d="M0.000 378.795 L 0.000 752.800 198.758 752.800 L 397.517 752.800 397.800 749.600 C 398.068 746.569,398.134 746.400,399.042 746.400 L 400.000 746.400 400.000 378.600 L 400.000 10.800 399.011 10.800 C 398.158 10.800,397.935 10.501,397.388 8.618 C 396.891 6.909,396.476 6.280,395.477 5.718 C 394.254 5.031,385.817 4.996,197.100 4.895 L 0.000 4.791 0.000 378.795 M274.059 46.135 C 276.256 46.847,278.345 47.888,279.109 48.652 C 279.410 48.953,279.816 49.200,280.010 49.200 C 280.561 49.200,282.309 51.084,282.596 51.987 C 282.738 52.434,282.982 52.800,283.140 52.800 C 284.411 52.800,284.416 53.828,284.307 308.200 C 284.206 546.871,284.163 560.323,283.500 562.520 C 283.115 563.795,282.800 565.374,282.800 566.027 C 282.800 567.262,281.472 572.731,280.791 574.300 C 280.427 575.138,280.156 575.802,279.242 578.100 C 279.045 578.595,278.665 580.080,278.398 581.400 C 277.098 587.826,273.673 595.538,271.590 596.729 C 270.945 597.098,270.251 597.850,270.048 598.400 C 268.496 602.604,267.068 606.000,266.853 606.000 C 266.711 606.000,266.343 606.585,266.035 607.300 C 265.727 608.015,264.738 609.424,263.837 610.430 C 262.937 611.437,261.570 613.054,260.800 614.024 C 256.812 619.045,248.693 625.600,246.460 625.600 C 245.365 625.600,242.546 627.402,241.082 629.038 C 239.504 630.801,235.416 633.683,232.726 634.930 C 231.915 635.306,230.510 636.326,229.603 637.197 C 225.850 640.803,221.791 642.054,210.200 643.178 C 208.000 643.391,204.490 643.772,202.400 644.025 C 197.033 644.674,176.453 644.235,172.400 643.385 C 168.683 642.606,162.496 641.978,161.327 642.262 C 158.880 642.854,153.153 639.909,151.452 637.183 C 150.679 635.946,147.476 634.158,145.356 633.781 C 141.850 633.157,135.200 629.154,135.200 627.667 C 135.200 627.518,134.615 627.141,133.900 626.830 C 131.768 625.903,126.674 622.357,125.600 621.053 C 125.050 620.385,123.160 618.335,121.400 616.497 C 119.640 614.659,117.774 612.400,117.253 611.478 C 116.732 610.555,116.168 609.710,116.000 609.600 C 115.619 609.351,113.642 606.032,113.349 605.150 C 113.230 604.792,112.730 604.284,112.238 604.021 C 110.402 603.038,106.000 596.416,106.000 594.636 C 106.000 594.280,105.835 593.677,105.633 593.295 C 105.432 592.913,105.048 592.011,104.781 591.292 C 104.515 590.572,103.822 589.582,103.243 589.092 C 101.862 587.924,100.571 586.050,100.285 584.800 C 100.159 584.250,99.858 583.080,99.616 582.200 C 97.987 576.276,96.934 438.057,98.495 435.184 C 101.879 428.958,102.134 428.697,106.260 427.240 C 112.939 424.882,126.396 424.681,131.200 426.869 C 131.970 427.219,133.170 427.723,133.868 427.988 C 134.982 428.412,137.600 430.803,137.600 431.398 C 137.600 431.518,138.072 432.330,138.648 433.201 C 140.825 436.490,140.771 434.747,140.786 502.280 C 140.795 543.844,140.939 565.470,141.216 566.880 C 142.099 571.382,142.566 572.591,143.977 574.029 C 145.762 575.848,146.015 576.188,147.220 578.396 C 147.759 579.383,148.772 580.955,149.471 581.888 C 150.169 582.821,150.848 583.920,150.978 584.331 C 151.109 584.742,151.658 585.280,152.200 585.527 C 152.741 585.774,153.826 586.869,154.611 587.962 C 155.396 589.055,156.261 590.005,156.533 590.074 C 157.711 590.374,165.577 595.874,166.242 596.863 C 167.063 598.085,167.313 598.181,171.800 599.001 C 174.291 599.456,178.766 599.582,192.000 599.572 C 212.076 599.556,212.089 599.554,215.312 595.581 C 217.388 593.021,219.146 591.596,221.985 590.170 C 223.540 589.389,224.174 588.776,224.769 587.479 C 225.616 585.634,229.847 581.030,231.045 580.649 C 231.461 580.517,232.041 579.822,232.334 579.105 C 232.627 578.387,233.015 577.440,233.196 577.000 C 233.782 575.577,234.860 572.646,235.477 570.800 C 235.808 569.810,236.241 568.829,236.439 568.620 C 236.638 568.411,236.800 567.912,236.800 567.511 C 236.800 567.111,237.681 565.892,238.758 564.804 C 240.616 562.926,240.730 562.687,240.977 560.113 C 241.121 558.621,241.275 444.360,241.319 306.200 C 241.396 66.926,241.434 54.915,242.108 53.200 C 242.852 51.309,246.833 46.725,248.200 46.187 C 251.039 45.068,270.645 45.029,274.059 46.135 M348.200 46.029 C 348.860 46.340,349.749 46.911,350.176 47.298 C 350.603 47.684,351.538 48.403,352.255 48.894 C 353.615 49.826,355.200 52.234,355.200 53.370 C 355.200 53.734,355.560 54.738,356.000 55.600 C 357.134 57.822,357.282 555.842,356.150 559.880 C 355.792 561.156,355.356 563.370,355.180 564.800 C 355.004 566.230,354.648 568.390,354.388 569.600 C 354.129 570.810,353.768 576.120,353.586 581.400 C 353.404 586.680,353.088 591.810,352.883 592.800 C 352.178 596.200,350.126 600.469,348.171 602.604 C 346.011 604.962,344.795 608.247,344.743 611.861 C 344.690 615.587,342.984 620.559,341.097 622.486 C 338.936 624.692,338.018 626.139,337.412 628.295 C 335.768 634.143,333.395 638.642,331.253 639.969 C 329.709 640.927,328.497 643.059,327.470 646.627 C 326.929 648.507,325.814 651.278,324.685 653.548 C 324.426 654.069,323.781 654.879,323.253 655.348 C 322.724 655.816,321.911 656.620,321.446 657.133 C 318.124 660.795,313.692 665.200,313.329 665.200 C 313.089 665.200,312.594 665.655,312.229 666.212 C 311.865 666.768,310.674 668.121,309.583 669.217 C 308.492 670.313,307.600 671.412,307.600 671.659 C 307.600 672.133,305.609 673.999,305.101 674.000 C 304.937 674.000,303.935 674.900,302.875 676.000 C 301.815 677.100,300.728 678.000,300.461 678.000 C 300.194 678.000,299.864 678.315,299.728 678.700 C 299.312 679.882,297.589 682.000,297.044 682.000 C 296.761 682.000,295.735 682.870,294.764 683.933 C 293.794 684.996,292.535 686.167,291.966 686.536 C 291.398 686.904,290.699 687.641,290.415 688.173 C 290.130 688.705,288.975 689.637,287.849 690.245 C 283.595 692.541,281.379 693.582,280.731 693.591 C 279.199 693.612,276.106 695.397,274.976 696.913 C 274.329 697.781,272.720 699.222,271.400 700.115 C 270.080 701.009,268.910 701.853,268.800 701.992 C 268.690 702.131,267.751 702.637,266.714 703.118 C 265.677 703.598,263.905 704.690,262.777 705.544 C 261.648 706.398,259.977 707.324,259.062 707.601 C 258.148 707.878,256.680 708.416,255.800 708.797 C 253.862 709.636,251.258 710.216,247.000 710.756 C 236.158 712.133,236.411 712.075,234.424 713.656 C 228.877 718.073,220.861 719.636,207.600 718.886 C 197.448 718.313,184.489 718.287,172.609 718.818 C 158.762 719.437,157.158 719.246,148.607 715.956 C 147.400 715.492,145.645 714.438,144.707 713.614 C 143.768 712.790,142.460 712.012,141.800 711.885 C 131.526 709.910,129.580 709.600,127.472 709.600 C 125.807 709.600,124.391 709.144,120.826 707.460 C 120.290 707.207,119.306 706.229,118.639 705.287 C 117.873 704.203,116.650 703.180,115.314 702.503 C 114.151 701.914,113.200 701.290,113.200 701.116 C 113.200 700.942,112.974 700.800,112.698 700.800 C 111.590 700.800,105.729 697.610,104.697 696.445 C 104.090 695.760,103.420 695.200,103.207 695.200 C 101.185 695.200,93.276 690.265,92.008 688.212 C 91.528 687.436,91.012 686.800,90.863 686.800 C 90.714 686.800,89.873 686.169,88.996 685.397 C 88.118 684.626,86.449 683.522,85.286 682.944 C 83.313 681.963,80.400 679.502,80.400 678.817 C 80.400 678.650,79.422 677.864,78.228 677.071 C 76.538 675.949,75.724 675.025,74.567 672.914 C 73.158 670.343,70.222 666.800,69.501 666.800 C 69.149 666.800,67.303 665.543,65.681 664.200 C 65.149 663.760,64.166 662.590,63.496 661.600 C 62.826 660.610,61.442 658.990,60.420 658.000 C 59.399 657.010,58.257 655.545,57.884 654.745 C 57.511 653.945,56.661 652.708,55.996 651.996 C 55.331 651.284,54.488 650.195,54.122 649.576 C 53.757 648.957,53.024 648.342,52.494 648.209 C 49.836 647.542,46.747 642.363,45.450 636.400 C 45.330 635.850,44.460 634.578,43.516 633.574 C 41.799 631.746,40.000 628.790,40.000 627.796 C 40.000 627.505,39.842 627.207,39.650 627.133 C 39.457 627.060,38.713 625.830,37.996 624.400 C 37.278 622.970,35.844 620.990,34.808 620.000 C 33.772 619.010,32.698 617.570,32.422 616.800 C 32.145 616.030,31.770 615.040,31.588 614.600 C 30.738 612.551,30.399 610.605,30.019 605.600 C 29.537 599.243,28.271 594.000,27.218 594.000 C 26.997 594.000,26.294 593.086,25.656 591.969 C 24.613 590.143,24.246 588.814,23.284 583.400 C 22.676 579.977,23.374 437.936,24.007 436.208 C 24.817 433.998,28.821 430.206,32.000 428.640 C 33.430 427.935,35.050 427.103,35.600 426.790 C 41.471 423.455,61.600 426.658,61.600 430.928 C 61.600 431.136,61.924 431.597,62.319 431.953 C 63.432 432.954,64.652 434.876,65.016 436.200 C 65.197 436.860,65.448 466.560,65.573 502.200 L 65.800 567.000 67.305 570.099 C 69.481 574.579,70.451 578.679,71.212 586.600 C 72.102 595.870,72.973 600.906,74.031 602.895 C 74.234 603.277,74.400 603.782,74.400 604.018 C 74.400 604.254,75.200 605.175,76.178 606.065 C 77.754 607.499,80.400 611.956,80.400 613.175 C 80.400 614.132,83.040 619.192,83.541 619.196 C 84.267 619.201,88.959 624.106,90.623 626.600 C 91.358 627.700,92.508 629.209,93.179 629.954 C 93.851 630.699,94.403 631.419,94.408 631.554 C 94.412 631.689,95.042 632.518,95.808 633.396 C 96.573 634.273,97.200 635.218,97.200 635.496 C 97.200 635.773,97.370 636.000,97.579 636.000 C 97.787 636.000,98.346 637.066,98.821 638.369 C 99.526 640.302,99.916 640.827,100.942 641.220 C 103.764 642.301,104.400 642.609,104.400 642.898 C 104.400 643.064,104.627 643.200,104.904 643.200 C 105.182 643.200,106.127 643.827,107.004 644.592 C 107.882 645.358,108.711 645.988,108.846 645.992 C 108.981 645.997,109.701 646.549,110.446 647.219 C 111.191 647.889,112.610 649.006,113.600 649.700 C 115.813 651.252,120.400 655.907,120.400 656.601 C 120.400 656.880,120.985 657.380,121.700 657.712 C 125.218 659.345,126.728 659.965,127.814 660.224 C 129.961 660.736,133.801 662.775,135.611 664.365 C 137.516 666.039,140.614 667.214,145.200 668.001 C 148.046 668.490,150.774 669.196,151.400 669.606 C 151.620 669.750,153.150 670.272,154.800 670.766 C 156.450 671.260,158.411 671.941,159.157 672.278 C 159.903 672.615,161.253 672.986,162.157 673.101 C 163.061 673.216,164.285 673.555,164.877 673.853 C 165.955 674.397,168.747 674.912,174.436 675.615 C 185.204 676.946,207.623 676.114,215.200 674.102 C 216.410 673.780,218.750 673.243,220.400 672.907 C 222.050 672.571,224.120 671.979,225.000 671.592 C 228.131 670.214,230.916 669.200,231.573 669.200 C 231.940 669.200,232.411 669.046,232.620 668.857 C 232.829 668.669,234.718 668.312,236.818 668.065 C 241.377 667.527,243.920 666.383,245.548 664.136 C 247.320 661.689,250.171 660.013,254.215 659.039 C 257.797 658.176,259.925 657.253,260.201 656.443 C 260.452 655.705,263.648 653.200,264.339 653.200 C 264.593 653.200,264.800 653.020,264.800 652.800 C 264.800 652.580,265.025 652.398,265.300 652.396 C 265.575 652.393,266.520 651.707,267.400 650.871 C 268.280 650.034,269.273 649.248,269.606 649.124 C 269.940 648.999,270.479 648.380,270.804 647.748 C 271.457 646.480,273.169 644.801,273.812 644.800 C 274.038 644.800,274.488 644.397,274.812 643.905 C 275.135 643.413,276.139 642.288,277.043 641.405 C 277.947 640.522,278.988 639.327,279.358 638.748 C 279.727 638.169,280.793 637.290,281.726 636.795 C 282.877 636.185,283.676 635.375,284.210 634.278 C 284.642 633.388,285.182 632.467,285.408 632.230 C 285.634 631.994,286.260 630.465,286.799 628.834 C 287.528 626.629,288.262 625.340,289.663 623.807 C 290.699 622.673,292.130 620.684,292.842 619.386 C 293.554 618.089,294.547 616.616,295.049 616.115 C 295.551 615.613,296.260 614.573,296.625 613.804 C 296.990 613.034,297.948 611.726,298.753 610.896 C 300.360 609.240,301.200 607.018,301.200 604.424 C 301.200 602.076,302.684 596.284,304.053 593.290 C 304.684 591.909,305.200 590.600,305.200 590.379 C 305.200 590.159,306.002 589.177,306.982 588.197 C 310.542 584.637,310.790 583.479,310.796 570.427 C 310.800 560.473,311.069 555.999,312.017 550.102 C 312.284 548.447,312.414 465.761,312.404 305.302 C 312.388 52.409,312.361 56.495,314.058 53.111 C 315.622 49.993,322.303 45.975,326.800 45.448 C 330.411 45.024,347.025 45.476,348.200 46.029 " stroke="none" fill="#6c9e7e" fill-rule="evenodd"></path><path id="path2" d="M251.494 48.885 C 247.947 49.807,246.093 51.287,245.260 53.861 C 244.094 57.460,244.014 74.479,244.023 314.697 C 244.030 497.587,243.916 561.231,243.577 562.497 C 242.950 564.839,240.923 568.965,239.979 569.819 C 239.550 570.207,239.200 570.766,239.200 571.062 C 239.200 571.358,239.020 571.600,238.800 571.600 C 238.580 571.600,238.400 571.924,238.400 572.320 C 238.400 572.716,238.251 573.211,238.070 573.420 C 237.888 573.629,237.497 574.610,237.202 575.600 C 236.123 579.212,233.661 583.220,230.738 586.125 C 229.672 587.184,228.796 588.264,228.791 588.525 C 228.787 588.786,228.142 589.540,227.359 590.200 C 226.576 590.860,225.285 591.985,224.489 592.700 C 223.694 593.415,222.886 594.000,222.693 594.000 C 222.501 594.000,222.101 594.225,221.804 594.500 C 212.390 603.244,213.599 602.920,190.400 602.913 C 171.395 602.907,169.088 602.691,165.969 600.627 C 165.115 600.062,164.278 599.595,164.109 599.589 C 163.939 599.583,162.900 598.774,161.800 597.790 C 160.700 596.807,159.485 595.899,159.100 595.774 C 158.715 595.649,158.400 595.407,158.400 595.237 C 158.400 595.067,157.933 594.715,157.361 594.455 C 154.586 593.191,147.659 586.130,145.281 582.141 C 144.776 581.294,143.756 579.900,143.015 579.044 C 141.741 577.572,141.041 576.336,139.366 572.600 C 137.691 568.865,137.630 566.376,137.612 501.000 C 137.600 457.165,137.466 438.124,137.158 437.000 C 135.570 431.185,128.775 429.109,114.100 429.953 C 105.151 430.468,102.168 432.295,100.833 438.077 C 100.253 440.591,100.226 556.735,100.804 563.000 C 101.337 568.770,101.969 573.789,102.429 575.900 C 103.255 579.688,103.735 581.419,104.059 581.780 C 104.247 581.989,104.400 582.421,104.400 582.740 C 104.400 583.060,105.506 585.589,106.859 588.360 C 108.211 591.132,109.659 594.127,110.078 595.015 C 110.496 595.903,111.334 597.163,111.940 597.815 C 112.547 598.467,113.830 600.170,114.791 601.600 C 115.753 603.030,116.655 604.290,116.796 604.400 C 116.937 604.510,117.662 605.680,118.406 607.000 C 119.150 608.320,120.357 610.030,121.088 610.800 C 121.818 611.570,123.358 613.269,124.508 614.576 C 128.476 619.083,130.742 621.157,132.868 622.229 C 134.040 622.821,135.090 623.432,135.200 623.587 C 135.844 624.496,144.244 629.631,146.600 630.555 C 149.674 631.762,151.373 632.798,153.800 634.947 C 156.336 637.193,158.954 638.259,163.200 638.776 C 166.897 639.226,169.701 639.656,173.800 640.400 C 181.891 641.869,197.319 642.097,203.857 640.844 C 206.026 640.428,209.690 639.871,212.000 639.605 C 216.496 639.087,220.733 637.963,222.384 636.850 C 222.943 636.473,224.300 635.729,225.400 635.196 C 226.500 634.664,228.390 633.592,229.600 632.814 C 230.810 632.036,232.631 630.983,233.647 630.472 C 234.663 629.962,236.373 628.737,237.447 627.750 C 238.521 626.764,240.210 625.480,241.200 624.897 C 242.190 624.315,243.090 623.739,243.200 623.619 C 243.384 623.417,244.085 623.070,246.785 621.846 C 248.455 621.090,255.758 614.183,258.255 611.000 C 258.945 610.120,260.603 608.230,261.939 606.800 C 263.275 605.370,264.661 603.480,265.018 602.600 C 266.309 599.423,268.206 595.613,268.500 595.606 C 268.665 595.603,268.802 595.375,268.804 595.100 C 268.807 594.825,269.610 593.532,270.591 592.226 C 272.994 589.024,274.730 584.668,275.622 579.600 C 275.873 578.170,276.239 576.100,276.436 575.000 C 276.632 573.900,276.970 571.920,277.188 570.600 C 277.737 567.266,278.466 564.285,279.582 560.800 C 280.767 557.102,280.811 547.854,280.810 305.400 C 280.808 32.240,281.019 54.745,278.446 52.478 C 273.772 48.359,260.384 46.574,251.494 48.885 M327.200 48.598 C 321.589 50.153,319.175 52.145,317.743 56.400 C 317.558 56.950,317.302 167.650,317.174 302.400 C 317.011 473.068,316.812 548.007,316.515 549.400 C 315.232 555.436,314.796 559.621,314.410 569.600 C 313.954 581.383,313.372 585.512,311.986 586.800 C 311.868 586.910,311.077 588.350,310.230 590.000 C 309.382 591.650,308.466 593.270,308.193 593.600 C 306.707 595.396,305.996 597.529,304.989 603.200 C 304.091 608.261,302.180 612.782,299.578 616.000 C 298.778 616.990,296.839 619.780,295.270 622.200 C 293.700 624.620,291.891 627.320,291.249 628.200 C 289.834 630.139,288.748 632.087,287.949 634.123 C 287.455 635.380,270.410 653.200,269.701 653.200 C 269.343 653.200,265.711 655.849,264.600 656.921 C 262.623 658.828,257.569 662.000,256.506 662.000 C 254.906 662.000,250.830 664.190,247.600 666.786 C 243.971 669.703,242.263 670.537,238.600 671.183 C 235.242 671.775,233.472 672.324,231.600 673.353 C 227.537 675.587,225.267 676.400,223.088 676.400 C 220.964 676.400,215.872 677.141,212.200 677.986 C 202.560 680.201,178.353 680.139,167.400 677.870 C 165.860 677.550,163.118 677.080,161.306 676.825 C 157.634 676.307,154.194 675.274,150.600 673.610 C 147.705 672.269,146.479 671.849,143.600 671.213 C 140.882 670.612,136.731 669.229,136.220 668.753 C 136.011 668.559,135.596 668.400,135.298 668.400 C 134.776 668.400,130.295 665.532,129.329 664.579 C 129.069 664.323,127.629 663.625,126.129 663.026 C 122.324 661.509,120.202 660.448,119.311 659.618 C 118.892 659.228,118.111 658.674,117.575 658.389 C 117.039 658.103,115.979 657.163,115.221 656.299 C 114.463 655.436,113.113 654.223,112.221 653.603 C 111.329 652.983,110.240 652.143,109.800 651.736 C 107.734 649.825,102.514 645.902,101.231 645.296 C 99.344 644.405,96.685 641.539,95.178 638.772 C 94.511 637.547,93.112 635.657,92.070 634.572 C 91.027 633.488,89.738 631.970,89.206 631.200 C 88.673 630.430,87.951 629.530,87.600 629.200 C 87.249 628.870,86.484 627.790,85.900 626.800 C 85.316 625.810,84.059 624.190,83.108 623.200 C 80.701 620.695,78.800 618.190,78.800 617.522 C 78.800 617.213,78.649 616.789,78.464 616.580 C 78.279 616.371,77.887 615.570,77.592 614.800 C 77.297 614.030,75.948 611.780,74.596 609.800 C 71.733 605.611,70.734 603.515,70.017 600.200 C 69.732 598.880,68.997 595.640,68.384 593.000 C 67.771 590.360,67.172 587.660,67.053 587.000 C 66.867 585.962,65.793 580.935,64.790 576.400 C 63.975 572.712,63.500 570.400,63.106 568.200 C 62.820 566.602,62.588 544.741,62.410 502.800 C 62.243 463.587,61.992 439.108,61.745 437.966 C 60.539 432.406,56.594 430.294,46.583 429.847 C 36.239 429.386,30.240 432.148,28.355 438.240 C 27.403 441.316,27.412 583.223,28.364 586.600 C 29.269 589.810,31.264 595.765,31.581 596.200 C 31.907 596.649,32.666 601.055,32.993 604.400 C 33.377 608.326,33.843 610.291,34.858 612.264 C 37.091 616.608,39.326 620.583,39.802 621.059 C 40.080 621.337,40.952 622.877,41.740 624.482 C 42.528 626.087,43.646 627.940,44.223 628.600 C 45.359 629.898,48.000 634.226,48.000 634.788 C 48.000 634.978,48.153 635.193,48.340 635.267 C 48.526 635.340,49.074 636.630,49.556 638.133 C 50.818 642.069,53.398 645.662,56.676 648.049 C 57.092 648.352,57.867 649.230,58.397 650.000 C 58.927 650.770,59.461 651.490,59.583 651.600 C 59.705 651.710,60.276 652.430,60.851 653.200 C 61.427 653.970,62.561 655.320,63.371 656.200 C 64.182 657.080,65.600 658.904,66.522 660.253 C 67.634 661.878,68.981 663.212,70.516 664.207 C 73.503 666.144,74.909 667.475,75.797 669.205 C 76.596 670.762,78.530 672.754,82.400 676.006 C 83.830 677.207,85.270 678.475,85.600 678.824 C 85.930 679.172,87.311 680.206,88.669 681.122 C 90.027 682.038,92.395 684.047,93.931 685.586 C 95.895 687.554,97.594 688.808,99.661 689.817 C 104.941 692.394,107.890 694.011,110.198 695.597 C 111.079 696.203,113.021 697.335,114.514 698.113 C 117.009 699.413,120.816 702.162,121.133 702.893 C 121.207 703.062,121.424 703.200,121.616 703.200 C 121.808 703.200,122.828 703.702,123.882 704.315 C 126.486 705.830,134.773 708.000,137.954 708.000 C 138.498 708.000,139.586 708.205,140.372 708.456 C 142.976 709.288,146.190 710.459,146.895 710.832 C 147.277 711.034,147.791 711.200,148.037 711.200 C 148.284 711.200,149.681 711.753,151.143 712.428 C 154.943 714.184,155.143 714.254,157.823 714.750 C 161.256 715.387,214.767 715.387,220.200 714.751 C 223.502 714.364,224.933 713.955,228.400 712.406 C 233.802 709.993,240.544 708.000,243.306 708.000 C 247.846 708.000,259.968 703.210,265.629 699.180 C 266.231 698.751,266.895 698.400,267.105 698.400 C 267.315 698.400,268.278 697.711,269.244 696.870 C 272.437 694.087,278.389 690.400,279.687 690.400 C 280.343 690.400,283.981 688.476,284.717 687.741 C 285.021 687.437,285.929 686.702,286.735 686.109 C 293.745 680.948,315.584 659.084,321.005 651.800 C 321.660 650.920,322.300 650.110,322.428 650.000 C 322.916 649.579,324.389 646.518,324.975 644.705 C 325.881 641.900,327.449 639.441,330.140 636.603 C 331.553 635.113,332.239 633.808,333.215 630.754 C 334.376 627.120,337.347 620.625,338.287 619.666 C 339.336 618.596,340.536 615.314,341.237 611.600 C 342.165 606.680,342.462 605.444,342.777 605.200 C 342.919 605.090,343.888 603.290,344.930 601.200 C 345.973 599.110,347.250 596.665,347.769 595.767 C 349.222 593.253,350.402 584.564,350.401 576.400 C 350.400 574.970,350.687 572.360,351.038 570.600 C 351.389 568.840,351.925 566.050,352.230 564.400 C 353.008 560.188,353.071 57.413,352.294 55.182 C 350.976 51.402,349.367 50.035,344.372 48.452 C 342.430 47.837,329.551 47.946,327.200 48.598 M269.912 50.972 C 273.422 51.906,274.751 52.807,276.026 55.116 L 277.192 57.225 277.197 306.112 L 277.202 555.000 275.965 560.800 C 275.285 563.990,274.583 567.860,274.405 569.400 C 274.227 570.940,273.883 573.969,273.640 576.132 C 272.943 582.349,272.066 585.327,270.218 587.752 C 268.321 590.241,265.600 594.316,265.600 594.667 C 265.600 596.909,262.753 602.046,259.983 604.800 C 258.324 606.450,256.197 608.822,255.257 610.071 C 254.316 611.321,253.152 612.602,252.669 612.918 C 251.529 613.665,247.200 618.063,247.200 618.474 C 247.200 618.902,244.679 620.412,242.000 621.589 C 239.809 622.551,236.478 624.816,234.204 626.891 C 232.989 628.000,229.940 629.616,222.400 633.149 C 215.211 636.517,215.486 636.428,207.400 638.005 C 199.556 639.536,179.146 639.540,172.600 638.012 C 171.720 637.807,170.010 637.434,168.800 637.183 C 162.940 635.968,160.566 635.244,157.802 633.829 C 156.483 633.153,155.077 632.306,154.677 631.947 C 154.048 631.382,150.895 629.736,147.600 628.252 C 147.050 628.004,146.510 627.707,146.400 627.591 C 145.930 627.099,138.895 622.522,137.800 621.997 C 133.978 620.164,129.672 616.278,123.400 609.002 C 122.300 607.726,121.220 606.484,121.000 606.241 C 120.492 605.681,118.000 601.614,118.000 601.345 C 118.000 601.100,115.555 597.480,115.200 597.200 C 114.734 596.832,111.600 592.531,111.600 592.259 C 111.600 592.112,111.255 591.228,110.833 590.296 C 110.412 589.363,109.669 587.430,109.183 586.000 C 108.697 584.570,108.174 583.220,108.022 583.000 C 107.754 582.615,107.122 580.534,106.380 577.600 C 106.185 576.830,105.501 574.400,104.859 572.200 C 102.493 564.096,102.600 567.491,102.600 500.400 C 102.600 431.994,102.419 436.744,105.091 434.903 C 109.403 431.933,126.183 431.605,131.650 434.383 C 135.789 436.486,135.369 429.136,135.617 503.800 C 135.767 549.030,135.966 569.429,136.268 570.400 C 136.507 571.170,136.941 572.868,137.233 574.174 C 137.684 576.194,140.853 581.964,141.971 582.800 C 142.118 582.910,142.671 583.630,143.200 584.400 C 143.729 585.170,144.269 585.890,144.400 586.000 C 144.531 586.110,145.063 586.830,145.582 587.600 C 146.701 589.259,151.245 593.782,152.431 594.417 C 152.889 594.662,153.564 595.108,153.932 595.409 C 154.299 595.709,155.770 596.817,157.200 597.870 C 158.630 598.923,160.054 600.029,160.364 600.328 C 161.422 601.346,163.854 602.719,165.828 603.411 C 167.785 604.098,169.155 604.454,173.000 605.279 C 174.100 605.515,180.400 605.791,187.000 605.892 C 201.401 606.112,205.587 605.760,213.800 603.637 C 215.998 603.069,217.775 601.907,220.522 599.241 C 222.019 597.789,224.269 595.970,225.521 595.200 C 228.069 593.634,228.790 592.981,230.790 590.430 C 231.554 589.456,233.029 587.809,234.068 586.770 C 235.849 584.990,236.850 583.263,237.997 580.000 C 238.707 577.980,240.827 573.435,241.169 573.200 C 241.715 572.825,244.652 568.204,245.109 567.000 C 246.381 563.654,246.400 559.936,246.400 309.453 L 246.400 57.853 247.256 55.442 C 248.316 52.457,248.536 52.237,251.448 51.252 C 254.452 50.237,266.465 50.054,269.912 50.972 M344.996 51.016 C 347.794 51.829,348.515 52.530,349.541 55.427 L 350.400 57.853 350.400 307.950 C 350.400 484.512,350.273 559.187,349.968 561.923 C 349.730 564.056,349.280 567.330,348.967 569.200 C 348.655 571.070,348.132 574.940,347.806 577.800 C 346.310 590.925,346.296 590.996,343.922 596.200 C 343.019 598.180,342.144 600.160,341.978 600.600 C 340.127 605.504,339.157 608.280,338.413 610.800 C 337.926 612.450,336.645 615.690,335.567 618.000 C 334.488 620.310,333.231 623.460,332.773 625.000 C 331.466 629.399,330.641 631.246,329.023 633.400 C 328.362 634.280,327.705 635.090,327.564 635.200 C 326.806 635.789,324.372 640.221,323.223 643.106 C 322.498 644.924,321.733 646.518,321.522 646.648 C 321.311 646.779,319.684 648.710,317.908 650.940 C 311.520 658.959,292.318 678.529,287.849 681.575 C 287.382 681.893,286.910 682.263,286.800 682.396 C 286.690 682.529,285.970 683.075,285.200 683.608 C 284.430 684.142,283.440 684.915,283.000 685.327 C 281.686 686.557,279.094 688.220,277.600 688.792 C 276.830 689.087,276.029 689.479,275.820 689.664 C 275.611 689.849,275.188 690.000,274.880 690.000 C 274.293 690.000,271.544 691.190,271.200 691.593 C 271.090 691.722,269.798 692.676,268.329 693.713 C 266.860 694.750,265.396 695.861,265.075 696.182 C 264.420 696.837,259.911 699.200,259.316 699.200 C 259.105 699.200,256.787 700.282,254.166 701.605 C 246.963 705.239,246.515 705.373,236.700 706.831 C 232.696 707.425,230.429 708.018,228.888 708.872 C 228.166 709.273,227.167 709.600,226.668 709.600 C 226.169 709.600,225.589 709.749,225.380 709.932 C 221.751 713.100,160.572 713.339,154.298 710.209 C 153.627 709.874,152.923 709.600,152.734 709.600 C 152.546 709.600,151.628 709.262,150.696 708.848 C 149.763 708.435,147.920 707.880,146.600 707.616 C 145.280 707.351,143.480 706.982,142.600 706.794 C 141.720 706.607,139.830 706.241,138.400 705.982 C 135.513 705.459,133.357 704.882,132.305 704.351 C 131.923 704.158,131.412 704.000,131.170 704.000 C 130.653 704.000,124.116 700.830,121.800 699.455 C 117.535 696.925,113.488 694.345,112.970 693.827 C 112.654 693.511,112.036 693.138,111.598 692.999 C 111.159 692.860,110.800 692.603,110.800 692.428 C 110.800 692.142,106.443 690.000,105.862 690.000 C 104.320 690.000,99.006 686.566,95.600 683.369 C 94.610 682.440,92.270 680.460,90.400 678.970 C 88.530 677.480,86.550 675.792,86.000 675.220 C 85.450 674.647,83.798 673.329,82.330 672.290 C 79.777 670.485,79.210 669.916,77.400 667.346 C 76.182 665.615,74.329 663.846,73.056 663.199 C 71.508 662.412,68.963 659.817,68.325 658.376 C 68.039 657.729,67.669 657.200,67.502 657.200 C 67.336 657.200,67.200 656.952,67.200 656.648 C 67.200 656.345,66.516 655.392,65.680 654.531 C 64.845 653.669,63.900 652.593,63.580 652.140 C 62.627 650.784,59.512 647.162,57.800 645.418 C 54.395 641.951,52.731 639.578,51.546 636.500 C 51.356 636.005,51.038 635.195,50.840 634.700 C 50.643 634.205,50.250 633.170,49.968 632.400 C 49.505 631.133,47.414 627.694,46.807 627.200 C 46.672 627.090,46.129 626.370,45.600 625.600 C 45.071 624.830,44.540 624.110,44.419 624.000 C 44.068 623.680,42.739 621.139,38.980 613.602 C 36.046 607.718,35.729 606.880,35.197 603.600 C 34.747 600.829,34.119 597.526,33.600 595.200 C 33.167 593.260,32.793 591.316,31.830 586.000 C 31.291 583.024,31.214 573.743,31.207 511.568 L 31.200 440.536 32.153 438.168 C 33.281 435.368,35.081 433.878,38.410 432.992 C 43.575 431.618,56.148 433.168,58.007 435.409 C 60.088 437.916,59.999 434.965,60.008 502.194 C 60.016 568.772,60.047 569.781,62.394 581.400 C 62.617 582.500,62.990 584.625,63.223 586.123 C 63.741 589.441,64.771 592.716,66.158 595.458 C 66.731 596.590,67.200 597.797,67.200 598.139 C 67.200 598.482,67.363 599.176,67.562 599.681 C 67.761 600.187,68.152 601.680,68.432 603.000 C 69.291 607.063,72.985 613.561,74.874 614.333 C 75.053 614.407,75.200 614.642,75.200 614.855 C 75.200 615.316,76.463 618.207,77.886 621.000 C 78.828 622.850,81.320 626.183,82.821 627.600 C 83.171 627.930,84.237 629.370,85.191 630.800 C 86.145 632.230,88.294 634.767,89.967 636.437 C 91.640 638.107,93.453 640.337,93.996 641.392 C 95.288 643.903,97.050 645.681,99.506 646.951 C 100.183 647.301,101.876 648.692,103.268 650.042 C 104.661 651.391,106.837 653.202,108.104 654.065 C 109.371 654.928,111.685 656.876,113.248 658.392 C 116.091 661.152,117.589 662.051,123.200 664.362 C 124.995 665.102,126.976 666.303,128.132 667.353 C 130.621 669.613,132.225 670.393,138.800 672.539 C 141.770 673.509,145.280 674.796,146.600 675.399 C 153.481 678.544,154.959 678.970,161.200 679.600 C 163.290 679.812,166.350 680.168,168.000 680.392 C 169.650 680.617,172.710 681.025,174.800 681.300 C 179.849 681.964,201.870 681.957,206.200 681.290 C 207.960 681.019,210.570 680.615,212.000 680.392 C 213.430 680.169,216.850 679.816,219.600 679.607 C 225.928 679.127,227.627 678.789,230.600 677.416 C 237.087 674.422,238.079 674.000,238.631 674.000 C 240.716 674.000,250.831 668.843,252.000 667.184 C 252.379 666.647,256.157 664.400,256.683 664.400 C 256.972 664.400,257.972 664.065,258.904 663.657 C 259.837 663.248,261.102 662.708,261.716 662.458 C 262.330 662.207,263.541 661.347,264.408 660.545 C 265.274 659.743,266.392 658.804,266.891 658.458 C 267.391 658.112,268.248 657.417,268.796 656.914 C 269.344 656.412,269.901 656.000,270.035 656.000 C 270.382 656.000,271.499 654.998,277.764 649.067 C 284.449 642.739,288.670 638.007,289.992 635.358 C 290.957 633.423,293.110 629.987,293.600 629.600 C 294.130 629.181,296.400 625.636,296.400 625.228 C 296.400 624.993,296.538 624.800,296.706 624.800 C 296.874 624.800,297.318 624.092,297.693 623.226 C 298.068 622.360,298.969 621.055,299.694 620.326 C 300.420 619.597,301.455 618.370,301.996 617.600 C 302.536 616.830,303.273 615.878,303.633 615.484 C 304.423 614.622,305.294 612.073,306.808 606.200 C 308.540 599.484,308.694 599.108,312.699 591.800 C 313.489 590.360,315.604 584.616,315.602 583.919 C 315.601 583.544,315.760 582.824,315.955 582.319 C 316.696 580.398,317.242 576.174,317.612 569.506 C 318.004 562.433,318.455 558.479,319.471 553.200 C 320.797 546.312,320.830 540.415,320.915 299.200 C 320.978 119.614,321.117 56.793,321.453 56.200 C 321.703 55.760,322.152 54.879,322.451 54.243 C 323.092 52.883,325.153 51.492,327.400 50.902 C 330.036 50.211,342.502 50.291,344.996 51.016 " stroke="none" fill="#9cc0ab" fill-rule="evenodd"></path><path id="path3" d="M0.000 2.395 L 0.000 4.791 197.100 4.895 C 385.817 4.996,394.254 5.031,395.477 5.718 C 396.476 6.280,396.891 6.909,397.388 8.618 C 397.935 10.501,398.158 10.800,399.011 10.800 L 400.000 10.800 400.000 5.400 L 400.000 0.000 200.000 0.000 L 0.000 0.000 0.000 2.395 M251.000 45.566 C 249.900 45.734,248.640 46.013,248.200 46.187 C 246.833 46.725,242.852 51.309,242.108 53.200 C 241.434 54.915,241.396 66.926,241.319 306.200 C 241.275 444.360,241.121 558.621,240.977 560.113 C 240.730 562.687,240.616 562.926,238.758 564.804 C 237.681 565.892,236.800 567.111,236.800 567.511 C 236.800 567.912,236.638 568.411,236.439 568.620 C 236.241 568.829,235.808 569.810,235.477 570.800 C 234.860 572.646,233.782 575.577,233.196 577.000 C 233.015 577.440,232.627 578.387,232.334 579.105 C 232.041 579.822,231.461 580.517,231.045 580.649 C 229.847 581.030,225.616 585.634,224.769 587.479 C 224.174 588.776,223.540 589.389,221.985 590.170 C 219.146 591.596,217.388 593.021,215.312 595.581 C 212.089 599.554,212.076 599.556,192.000 599.572 C 178.766 599.582,174.291 599.456,171.800 599.001 C 167.313 598.181,167.063 598.085,166.242 596.863 C 165.577 595.874,157.711 590.374,156.533 590.074 C 156.261 590.005,155.396 589.055,154.611 587.962 C 153.826 586.869,152.741 585.774,152.200 585.527 C 151.658 585.280,151.109 584.742,150.978 584.331 C 150.848 583.920,150.169 582.821,149.471 581.888 C 148.772 580.955,147.759 579.383,147.220 578.396 C 146.015 576.188,145.762 575.848,143.977 574.029 C 142.566 572.591,142.099 571.382,141.216 566.880 C 140.939 565.470,140.795 543.844,140.786 502.280 C 140.771 434.747,140.825 436.490,138.648 433.201 C 138.072 432.330,137.600 431.518,137.600 431.398 C 137.600 430.803,134.982 428.412,133.868 427.988 C 133.170 427.723,131.970 427.219,131.200 426.869 C 126.396 424.681,112.939 424.882,106.260 427.240 C 102.134 428.697,101.879 428.958,98.495 435.184 C 96.934 438.057,97.987 576.276,99.616 582.200 C 99.858 583.080,100.159 584.250,100.285 584.800 C 100.571 586.050,101.862 587.924,103.243 589.092 C 103.822 589.582,104.515 590.572,104.781 591.292 C 105.048 592.011,105.432 592.913,105.633 593.295 C 105.835 593.677,106.000 594.280,106.000 594.636 C 106.000 596.416,110.402 603.038,112.238 604.021 C 112.730 604.284,113.230 604.792,113.349 605.150 C 113.642 606.032,115.619 609.351,116.000 609.600 C 116.168 609.710,116.732 610.555,117.253 611.478 C 117.774 612.400,119.640 614.659,121.400 616.497 C 123.160 618.335,125.050 620.385,125.600 621.053 C 126.674 622.357,131.768 625.903,133.900 626.830 C 134.615 627.141,135.200 627.518,135.200 627.667 C 135.200 629.154,141.850 633.157,145.356 633.781 C 147.476 634.158,150.679 635.946,151.452 637.183 C 153.153 639.909,158.880 642.854,161.327 642.262 C 162.496 641.978,168.683 642.606,172.400 643.385 C 176.453 644.235,197.033 644.674,202.400 644.025 C 204.490 643.772,208.000 643.391,210.200 643.178 C 221.791 642.054,225.850 640.803,229.603 637.197 C 230.510 636.326,231.915 635.306,232.726 634.930 C 235.416 633.683,239.504 630.801,241.082 629.038 C 242.546 627.402,245.365 625.600,246.460 625.600 C 248.693 625.600,256.812 619.045,260.800 614.024 C 261.570 613.054,262.937 611.437,263.837 610.430 C 264.738 609.424,265.727 608.015,266.035 607.300 C 266.343 606.585,266.711 606.000,266.853 606.000 C 267.068 606.000,268.496 602.604,270.048 598.400 C 270.251 597.850,270.945 597.098,271.590 596.729 C 273.673 595.538,277.098 587.826,278.398 581.400 C 278.665 580.080,279.045 578.595,279.242 578.100 C 280.156 575.802,280.427 575.138,280.791 574.300 C 281.472 572.731,282.800 567.262,282.800 566.027 C 282.800 565.374,283.115 563.795,283.500 562.520 C 284.163 560.323,284.206 546.871,284.307 308.200 C 284.416 53.828,284.411 52.800,283.140 52.800 C 282.982 52.800,282.738 52.434,282.596 51.987 C 282.309 51.084,280.561 49.200,280.010 49.200 C 279.816 49.200,279.410 48.953,279.109 48.652 C 278.345 47.888,276.256 46.847,274.059 46.135 C 271.957 45.454,254.554 45.025,251.000 45.566 M326.800 45.448 C 322.303 45.975,315.622 49.993,314.058 53.111 C 312.361 56.495,312.388 52.409,312.404 305.302 C 312.414 465.761,312.284 548.447,312.017 550.102 C 311.069 555.999,310.800 560.473,310.796 570.427 C 310.790 583.479,310.542 584.637,306.982 588.197 C 306.002 589.177,305.200 590.159,305.200 590.379 C 305.200 590.600,304.684 591.909,304.053 593.290 C 302.684 596.284,301.200 602.076,301.200 604.424 C 301.200 607.018,300.360 609.240,298.753 610.896 C 297.948 611.726,296.990 613.034,296.625 613.804 C 296.260 614.573,295.551 615.613,295.049 616.115 C 294.547 616.616,293.554 618.089,292.842 619.386 C 292.130 620.684,290.699 622.673,289.663 623.807 C 288.262 625.340,287.528 626.629,286.799 628.834 C 286.260 630.465,285.634 631.994,285.408 632.230 C 285.182 632.467,284.642 633.388,284.210 634.278 C 283.676 635.375,282.877 636.185,281.726 636.795 C 280.793 637.290,279.727 638.169,279.358 638.748 C 278.988 639.327,277.947 640.522,277.043 641.405 C 276.139 642.288,275.135 643.413,274.812 643.905 C 274.488 644.397,274.038 644.800,273.812 644.800 C 273.169 644.801,271.457 646.480,270.804 647.748 C 270.479 648.380,269.940 648.999,269.606 649.124 C 269.273 649.248,268.280 650.034,267.400 650.871 C 266.520 651.707,265.575 652.393,265.300 652.396 C 265.025 652.398,264.800 652.580,264.800 652.800 C 264.800 653.020,264.593 653.200,264.339 653.200 C 263.648 653.200,260.452 655.705,260.201 656.443 C 259.925 657.253,257.797 658.176,254.215 659.039 C 250.171 660.013,247.320 661.689,245.548 664.136 C 243.920 666.383,241.377 667.527,236.818 668.065 C 234.718 668.312,232.829 668.669,232.620 668.857 C 232.411 669.046,231.940 669.200,231.573 669.200 C 230.916 669.200,228.131 670.214,225.000 671.592 C 224.120 671.979,222.050 672.571,220.400 672.907 C 218.750 673.243,216.410 673.780,215.200 674.102 C 207.623 676.114,185.204 676.946,174.436 675.615 C 168.747 674.912,165.955 674.397,164.877 673.853 C 164.285 673.555,163.061 673.216,162.157 673.101 C 161.253 672.986,159.903 672.615,159.157 672.278 C 158.411 671.941,156.450 671.260,154.800 670.766 C 153.150 670.272,151.620 669.750,151.400 669.606 C 150.774 669.196,148.046 668.490,145.200 668.001 C 140.614 667.214,137.516 666.039,135.611 664.365 C 133.801 662.775,129.961 660.736,127.814 660.224 C 126.728 659.965,125.218 659.345,121.700 657.712 C 120.985 657.380,120.400 656.880,120.400 656.601 C 120.400 655.907,115.813 651.252,113.600 649.700 C 112.610 649.006,111.191 647.889,110.446 647.219 C 109.701 646.549,108.981 645.997,108.846 645.992 C 108.711 645.988,107.882 645.358,107.004 644.592 C 106.127 643.827,105.182 643.200,104.904 643.200 C 104.627 643.200,104.400 643.064,104.400 642.898 C 104.400 642.609,103.764 642.301,100.942 641.220 C 99.916 640.827,99.526 640.302,98.821 638.369 C 98.346 637.066,97.787 636.000,97.579 636.000 C 97.370 636.000,97.200 635.773,97.200 635.496 C 97.200 635.218,96.573 634.273,95.808 633.396 C 95.042 632.518,94.412 631.689,94.408 631.554 C 94.403 631.419,93.851 630.699,93.179 629.954 C 92.508 629.209,91.358 627.700,90.623 626.600 C 88.959 624.106,84.267 619.201,83.541 619.196 C 83.040 619.192,80.400 614.132,80.400 613.175 C 80.400 611.956,77.754 607.499,76.178 606.065 C 75.200 605.175,74.400 604.254,74.400 604.018 C 74.400 603.782,74.234 603.277,74.031 602.895 C 72.973 600.906,72.102 595.870,71.212 586.600 C 70.451 578.679,69.481 574.579,67.305 570.099 L 65.800 567.000 65.573 502.200 C 65.448 466.560,65.197 436.860,65.016 436.200 C 64.652 434.876,63.432 432.954,62.319 431.953 C 61.924 431.597,61.600 431.136,61.600 430.928 C 61.600 426.658,41.471 423.455,35.600 426.790 C 35.050 427.103,33.430 427.935,32.000 428.640 C 28.821 430.206,24.817 433.998,24.007 436.208 C 23.374 437.936,22.676 579.977,23.284 583.400 C 24.246 588.814,24.613 590.143,25.656 591.969 C 26.294 593.086,26.997 594.000,27.218 594.000 C 28.271 594.000,29.537 599.243,30.019 605.600 C 30.399 610.605,30.738 612.551,31.588 614.600 C 31.770 615.040,32.145 616.030,32.422 616.800 C 32.698 617.570,33.772 619.010,34.808 620.000 C 35.844 620.990,37.278 622.970,37.996 624.400 C 38.713 625.830,39.457 627.060,39.650 627.133 C 39.842 627.207,40.000 627.505,40.000 627.796 C 40.000 628.790,41.799 631.746,43.516 633.574 C 44.460 634.578,45.330 635.850,45.450 636.400 C 46.747 642.363,49.836 647.542,52.494 648.209 C 53.024 648.342,53.757 648.957,54.122 649.576 C 54.488 650.195,55.331 651.284,55.996 651.996 C 56.661 652.708,57.511 653.945,57.884 654.745 C 58.257 655.545,59.399 657.010,60.420 658.000 C 61.442 658.990,62.826 660.610,63.496 661.600 C 64.166 662.590,65.149 663.760,65.681 664.200 C 67.303 665.543,69.149 666.800,69.501 666.800 C 70.222 666.800,73.158 670.343,74.567 672.914 C 75.724 675.025,76.538 675.949,78.228 677.071 C 79.422 677.864,80.400 678.650,80.400 678.817 C 80.400 679.502,83.313 681.963,85.286 682.944 C 86.449 683.522,88.118 684.626,88.996 685.397 C 89.873 686.169,90.714 686.800,90.863 686.800 C 91.012 686.800,91.528 687.436,92.008 688.212 C 93.276 690.265,101.185 695.200,103.207 695.200 C 103.420 695.200,104.090 695.760,104.697 696.445 C 105.729 697.610,111.590 700.800,112.698 700.800 C 112.974 700.800,113.200 700.942,113.200 701.116 C 113.200 701.290,114.151 701.914,115.314 702.503 C 116.650 703.180,117.873 704.203,118.639 705.287 C 119.306 706.229,120.290 707.207,120.826 707.460 C 124.391 709.144,125.807 709.600,127.472 709.600 C 129.580 709.600,131.526 709.910,141.800 711.885 C 142.460 712.012,143.768 712.790,144.707 713.614 C 145.645 714.438,147.400 715.492,148.607 715.956 C 157.158 719.246,158.762 719.437,172.609 718.818 C 184.489 718.287,197.448 718.313,207.600 718.886 C 220.861 719.636,228.877 718.073,234.424 713.656 C 236.411 712.075,236.158 712.133,247.000 710.756 C 251.258 710.216,253.862 709.636,255.800 708.797 C 256.680 708.416,258.148 707.878,259.062 707.601 C 259.977 707.324,261.648 706.398,262.777 705.544 C 263.905 704.690,265.677 703.598,266.714 703.118 C 267.751 702.637,268.690 702.131,268.800 701.992 C 268.910 701.853,270.080 701.009,271.400 700.115 C 272.720 699.222,274.329 697.781,274.976 696.913 C 276.106 695.397,279.199 693.612,280.731 693.591 C 281.379 693.582,283.595 692.541,287.849 690.245 C 288.975 689.637,290.130 688.705,290.415 688.173 C 290.699 687.641,291.398 686.904,291.966 686.536 C 292.535 686.167,293.794 684.996,294.764 683.933 C 295.735 682.870,296.761 682.000,297.044 682.000 C 297.589 682.000,299.312 679.882,299.728 678.700 C 299.864 678.315,300.194 678.000,300.461 678.000 C 300.728 678.000,301.815 677.100,302.875 676.000 C 303.935 674.900,304.937 674.000,305.101 674.000 C 305.609 673.999,307.600 672.133,307.600 671.659 C 307.600 671.412,308.492 670.313,309.583 669.217 C 310.674 668.121,311.865 666.768,312.229 666.212 C 312.594 665.655,313.089 665.200,313.329 665.200 C 313.692 665.200,318.124 660.795,321.446 657.133 C 321.911 656.620,322.724 655.816,323.253 655.348 C 323.781 654.879,324.426 654.069,324.685 653.548 C 325.814 651.278,326.929 648.507,327.470 646.627 C 328.497 643.059,329.709 640.927,331.253 639.969 C 333.395 638.642,335.768 634.143,337.412 628.295 C 338.018 626.139,338.936 624.692,341.097 622.486 C 342.984 620.559,344.690 615.587,344.743 611.861 C 344.795 608.247,346.011 604.962,348.171 602.604 C 350.126 600.469,352.178 596.200,352.883 592.800 C 353.088 591.810,353.404 586.680,353.586 581.400 C 353.768 576.120,354.129 570.810,354.388 569.600 C 354.648 568.390,355.004 566.230,355.180 564.800 C 355.356 563.370,355.792 561.156,356.150 559.880 C 357.282 555.842,357.134 57.822,356.000 55.600 C 355.560 54.738,355.200 53.734,355.200 53.370 C 355.200 52.234,353.615 49.826,352.255 48.894 C 351.538 48.403,350.603 47.684,350.176 47.298 C 348.323 45.618,347.336 45.467,337.600 45.374 C 332.430 45.324,327.570 45.358,326.800 45.448 M270.803 48.938 C 276.850 50.606,279.146 52.243,280.150 55.600 C 280.758 57.631,280.809 76.768,280.810 305.400 C 280.811 547.854,280.767 557.102,279.582 560.800 C 278.466 564.285,277.737 567.266,277.188 570.600 C 276.970 571.920,276.632 573.900,276.436 575.000 C 276.239 576.100,275.873 578.170,275.622 579.600 C 274.730 584.668,272.994 589.024,270.591 592.226 C 269.610 593.532,268.807 594.825,268.804 595.100 C 268.802 595.375,268.665 595.603,268.500 595.606 C 268.206 595.613,266.309 599.423,265.018 602.600 C 264.661 603.480,263.275 605.370,261.939 606.800 C 260.603 608.230,258.945 610.120,258.255 611.000 C 255.758 614.183,248.455 621.090,246.785 621.846 C 244.085 623.070,243.384 623.417,243.200 623.619 C 243.090 623.739,242.190 624.315,241.200 624.897 C 240.210 625.480,238.521 626.764,237.447 627.750 C 236.373 628.737,234.663 629.962,233.647 630.472 C 232.631 630.983,230.810 632.036,229.600 632.814 C 228.390 633.592,226.500 634.664,225.400 635.196 C 224.300 635.729,222.943 636.473,222.384 636.850 C 220.733 637.963,216.496 639.087,212.000 639.605 C 209.690 639.871,206.026 640.428,203.857 640.844 C 197.319 642.097,181.891 641.869,173.800 640.400 C 169.701 639.656,166.897 639.226,163.200 638.776 C 158.954 638.259,156.336 637.193,153.800 634.947 C 151.373 632.798,149.674 631.762,146.600 630.555 C 144.244 629.631,135.844 624.496,135.200 623.587 C 135.090 623.432,134.040 622.821,132.868 622.229 C 130.742 621.157,128.476 619.083,124.508 614.576 C 123.358 613.269,121.818 611.570,121.088 610.800 C 120.357 610.030,119.150 608.320,118.406 607.000 C 117.662 605.680,116.937 604.510,116.796 604.400 C 116.655 604.290,115.753 603.030,114.791 601.600 C 113.830 600.170,112.547 598.467,111.940 597.815 C 111.334 597.163,110.496 595.903,110.078 595.015 C 109.659 594.127,108.211 591.132,106.859 588.360 C 105.506 585.589,104.400 583.060,104.400 582.740 C 104.400 582.421,104.247 581.989,104.059 581.780 C 103.735 581.419,103.255 579.688,102.429 575.900 C 101.969 573.789,101.337 568.770,100.804 563.000 C 100.226 556.735,100.253 440.591,100.833 438.077 C 102.168 432.295,105.151 430.468,114.100 429.953 C 128.775 429.109,135.570 431.185,137.158 437.000 C 137.466 438.124,137.600 457.165,137.612 501.000 C 137.630 566.376,137.691 568.865,139.366 572.600 C 141.041 576.336,141.741 577.572,143.015 579.044 C 143.756 579.900,144.776 581.294,145.281 582.141 C 147.659 586.130,154.586 593.191,157.361 594.455 C 157.933 594.715,158.400 595.067,158.400 595.237 C 158.400 595.407,158.715 595.649,159.100 595.774 C 159.485 595.899,160.700 596.807,161.800 597.790 C 162.900 598.774,163.939 599.583,164.109 599.589 C 164.278 599.595,165.115 600.062,165.969 600.627 C 169.088 602.691,171.395 602.907,190.400 602.913 C 213.599 602.920,212.390 603.244,221.804 594.500 C 222.101 594.225,222.501 594.000,222.693 594.000 C 222.886 594.000,223.694 593.415,224.489 592.700 C 225.285 591.985,226.576 590.860,227.359 590.200 C 228.142 589.540,228.787 588.786,228.791 588.525 C 228.796 588.264,229.672 587.184,230.738 586.125 C 233.661 583.220,236.123 579.212,237.202 575.600 C 237.497 574.610,237.888 573.629,238.070 573.420 C 238.251 573.211,238.400 572.716,238.400 572.320 C 238.400 571.924,238.580 571.600,238.800 571.600 C 239.020 571.600,239.200 571.358,239.200 571.062 C 239.200 570.766,239.550 570.207,239.979 569.819 C 240.923 568.965,242.950 564.839,243.577 562.497 C 243.916 561.231,244.030 497.587,244.023 314.697 C 244.012 38.458,243.830 54.250,247.073 51.007 C 250.062 48.018,263.290 46.864,270.803 48.938 M344.372 48.452 C 349.367 50.035,350.976 51.402,352.294 55.182 C 353.071 57.413,353.008 560.188,352.230 564.400 C 351.925 566.050,351.389 568.840,351.038 570.600 C 350.687 572.360,350.400 574.970,350.401 576.400 C 350.402 584.564,349.222 593.253,347.769 595.767 C 347.250 596.665,345.973 599.110,344.930 601.200 C 343.888 603.290,342.919 605.090,342.777 605.200 C 342.462 605.444,342.165 606.680,341.237 611.600 C 340.536 615.314,339.336 618.596,338.287 619.666 C 337.347 620.625,334.376 627.120,333.215 630.754 C 332.239 633.808,331.553 635.113,330.140 636.603 C 327.449 639.441,325.881 641.900,324.975 644.705 C 324.389 646.518,322.916 649.579,322.428 650.000 C 322.300 650.110,321.660 650.920,321.005 651.800 C 315.584 659.084,293.745 680.948,286.735 686.109 C 285.929 686.702,285.021 687.437,284.717 687.741 C 283.981 688.476,280.343 690.400,279.687 690.400 C 278.389 690.400,272.437 694.087,269.244 696.870 C 268.278 697.711,267.315 698.400,267.105 698.400 C 266.895 698.400,266.231 698.751,265.629 699.180 C 259.968 703.210,247.846 708.000,243.306 708.000 C 240.544 708.000,233.802 709.993,228.400 712.406 C 224.933 713.955,223.502 714.364,220.200 714.751 C 214.767 715.387,161.256 715.387,157.823 714.750 C 155.143 714.254,154.943 714.184,151.143 712.428 C 149.681 711.753,148.284 711.200,148.037 711.200 C 147.791 711.200,147.277 711.034,146.895 710.832 C 146.190 710.459,142.976 709.288,140.372 708.456 C 139.586 708.205,138.498 708.000,137.954 708.000 C 134.773 708.000,126.486 705.830,123.882 704.315 C 122.828 703.702,121.808 703.200,121.616 703.200 C 121.424 703.200,121.207 703.062,121.133 702.893 C 120.816 702.162,117.009 699.413,114.514 698.113 C 113.021 697.335,111.079 696.203,110.198 695.597 C 107.890 694.011,104.941 692.394,99.661 689.817 C 97.594 688.808,95.895 687.554,93.931 685.586 C 92.395 684.047,90.027 682.038,88.669 681.122 C 87.311 680.206,85.930 679.172,85.600 678.824 C 85.270 678.475,83.830 677.207,82.400 676.006 C 78.530 672.754,76.596 670.762,75.797 669.205 C 74.909 667.475,73.503 666.144,70.516 664.207 C 68.981 663.212,67.634 661.878,66.522 660.253 C 65.600 658.904,64.182 657.080,63.371 656.200 C 62.561 655.320,61.427 653.970,60.851 653.200 C 60.276 652.430,59.705 651.710,59.583 651.600 C 59.461 651.490,58.927 650.770,58.397 650.000 C 57.867 649.230,57.092 648.352,56.676 648.049 C 53.398 645.662,50.818 642.069,49.556 638.133 C 49.074 636.630,48.526 635.340,48.340 635.267 C 48.153 635.193,48.000 634.978,48.000 634.788 C 48.000 634.226,45.359 629.898,44.223 628.600 C 43.646 627.940,42.528 626.087,41.740 624.482 C 40.952 622.877,40.080 621.337,39.802 621.059 C 39.326 620.583,37.091 616.608,34.858 612.264 C 33.843 610.291,33.377 608.326,32.993 604.400 C 32.666 601.055,31.907 596.649,31.581 596.200 C 31.264 595.765,29.269 589.810,28.364 586.600 C 27.412 583.223,27.403 441.316,28.355 438.240 C 30.240 432.148,36.239 429.386,46.583 429.847 C 56.594 430.294,60.539 432.406,61.745 437.966 C 61.992 439.108,62.243 463.587,62.410 502.800 C 62.588 544.741,62.820 566.602,63.106 568.200 C 63.500 570.400,63.975 572.712,64.790 576.400 C 65.793 580.935,66.867 585.962,67.053 587.000 C 67.172 587.660,67.771 590.360,68.384 593.000 C 68.997 595.640,69.732 598.880,70.017 600.200 C 70.734 603.515,71.733 605.611,74.596 609.800 C 75.948 611.780,77.297 614.030,77.592 614.800 C 77.887 615.570,78.279 616.371,78.464 616.580 C 78.649 616.789,78.800 617.213,78.800 617.522 C 78.800 618.190,80.701 620.695,83.108 623.200 C 84.059 624.190,85.316 625.810,85.900 626.800 C 86.484 627.790,87.249 628.870,87.600 629.200 C 87.951 629.530,88.673 630.430,89.206 631.200 C 89.738 631.970,91.027 633.488,92.070 634.572 C 93.112 635.657,94.511 637.547,95.178 638.772 C 96.685 641.539,99.344 644.405,101.231 645.296 C 102.514 645.902,107.734 649.825,109.800 651.736 C 110.240 652.143,111.329 652.983,112.221 653.603 C 113.113 654.223,114.463 655.436,115.221 656.299 C 115.979 657.163,117.039 658.103,117.575 658.389 C 118.111 658.674,118.892 659.228,119.311 659.618 C 120.202 660.448,122.324 661.509,126.129 663.026 C 127.629 663.625,129.069 664.323,129.329 664.579 C 130.295 665.532,134.776 668.400,135.298 668.400 C 135.596 668.400,136.011 668.559,136.220 668.753 C 136.731 669.229,140.882 670.612,143.600 671.213 C 146.479 671.849,147.705 672.269,150.600 673.610 C 154.194 675.274,157.634 676.307,161.306 676.825 C 163.118 677.080,165.860 677.550,167.400 677.870 C 178.353 680.139,202.560 680.201,212.200 677.986 C 215.872 677.141,220.964 676.400,223.088 676.400 C 225.267 676.400,227.537 675.587,231.600 673.353 C 233.472 672.324,235.242 671.775,238.600 671.183 C 242.263 670.537,243.971 669.703,247.600 666.786 C 250.830 664.190,254.906 662.000,256.506 662.000 C 257.569 662.000,262.623 658.828,264.600 656.921 C 265.711 655.849,269.343 653.200,269.701 653.200 C 270.410 653.200,287.455 635.380,287.949 634.123 C 288.748 632.087,289.834 630.139,291.249 628.200 C 291.891 627.320,293.700 624.620,295.270 622.200 C 296.839 619.780,298.778 616.990,299.578 616.000 C 302.180 612.782,304.091 608.261,304.989 603.200 C 305.996 597.529,306.707 595.396,308.193 593.600 C 308.466 593.270,309.382 591.650,310.230 590.000 C 311.077 588.350,311.868 586.910,311.986 586.800 C 313.372 585.512,313.954 581.383,314.410 569.600 C 314.796 559.621,315.232 555.436,316.515 549.400 C 316.812 548.007,317.011 473.068,317.174 302.400 C 317.302 167.650,317.558 56.950,317.743 56.400 C 319.175 52.145,321.589 50.153,327.200 48.598 C 329.551 47.946,342.430 47.837,344.372 48.452 M397.857 748.859 C 397.447 752.780,397.452 752.800,398.800 752.800 L 400.000 752.800 400.000 749.600 C 400.000 746.505,399.969 746.400,399.057 746.400 C 398.196 746.400,398.091 746.615,397.857 748.859 " stroke="none" fill="#88b49c" fill-rule="evenodd"></path><path id="path4" d="M251.448 51.252 C 248.536 52.237,248.316 52.457,247.256 55.442 L 246.400 57.853 246.400 309.453 C 246.400 559.936,246.381 563.654,245.109 567.000 C 244.652 568.204,241.715 572.825,241.169 573.200 C 240.827 573.435,238.707 577.980,237.997 580.000 C 236.850 583.263,235.849 584.990,234.068 586.770 C 233.029 587.809,231.554 589.456,230.790 590.430 C 228.790 592.981,228.069 593.634,225.521 595.200 C 224.269 595.970,222.019 597.789,220.522 599.241 C 217.775 601.907,215.998 603.069,213.800 603.637 C 205.587 605.760,201.401 606.112,187.000 605.892 C 180.400 605.791,174.100 605.515,173.000 605.279 C 169.155 604.454,167.785 604.098,165.828 603.411 C 163.854 602.719,161.422 601.346,160.364 600.328 C 160.054 600.029,158.630 598.923,157.200 597.870 C 155.770 596.817,154.299 595.709,153.932 595.409 C 153.564 595.108,152.889 594.662,152.431 594.417 C 151.245 593.782,146.701 589.259,145.582 587.600 C 145.063 586.830,144.531 586.110,144.400 586.000 C 144.269 585.890,143.729 585.170,143.200 584.400 C 142.671 583.630,142.118 582.910,141.971 582.800 C 140.853 581.964,137.684 576.194,137.233 574.174 C 136.941 572.868,136.507 571.170,136.268 570.400 C 135.966 569.429,135.767 549.030,135.617 503.800 C 135.369 429.136,135.789 436.486,131.650 434.383 C 126.183 431.605,109.403 431.933,105.091 434.903 C 102.419 436.744,102.600 431.994,102.600 500.400 C 102.600 567.491,102.493 564.096,104.859 572.200 C 105.501 574.400,106.185 576.830,106.380 577.600 C 107.122 580.534,107.754 582.615,108.022 583.000 C 108.174 583.220,108.697 584.570,109.183 586.000 C 109.669 587.430,110.412 589.363,110.833 590.296 C 111.255 591.228,111.600 592.112,111.600 592.259 C 111.600 592.531,114.734 596.832,115.200 597.200 C 115.555 597.480,118.000 601.100,118.000 601.345 C 118.000 601.614,120.492 605.681,121.000 606.241 C 121.220 606.484,122.300 607.726,123.400 609.002 C 129.672 616.278,133.978 620.164,137.800 621.997 C 138.895 622.522,145.930 627.099,146.400 627.591 C 146.510 627.707,147.050 628.004,147.600 628.252 C 150.895 629.736,154.048 631.382,154.677 631.947 C 156.918 633.960,161.572 635.685,168.800 637.183 C 170.010 637.434,171.720 637.807,172.600 638.012 C 179.146 639.540,199.556 639.536,207.400 638.005 C 215.486 636.428,215.211 636.517,222.400 633.149 C 229.940 629.616,232.989 628.000,234.204 626.891 C 236.478 624.816,239.809 622.551,242.000 621.589 C 244.679 620.412,247.200 618.902,247.200 618.474 C 247.200 618.063,251.529 613.665,252.669 612.918 C 253.152 612.602,254.316 611.321,255.257 610.071 C 256.197 608.822,258.324 606.450,259.983 604.800 C 262.753 602.046,265.600 596.909,265.600 594.667 C 265.600 594.316,268.321 590.241,270.218 587.752 C 272.066 585.327,272.943 582.349,273.640 576.132 C 273.883 573.969,274.227 570.940,274.405 569.400 C 274.583 567.860,275.285 563.990,275.965 560.800 L 277.202 555.000 277.197 306.112 L 277.192 57.225 276.026 55.116 C 273.947 51.352,270.848 50.399,260.800 50.433 C 254.912 50.453,253.426 50.583,251.448 51.252 M327.400 50.902 C 325.153 51.492,323.092 52.883,322.451 54.243 C 322.152 54.879,321.703 55.760,321.453 56.200 C 321.117 56.793,320.978 119.614,320.915 299.200 C 320.830 540.415,320.797 546.312,319.471 553.200 C 318.455 558.479,318.004 562.433,317.612 569.506 C 317.242 576.174,316.696 580.398,315.955 582.319 C 315.760 582.824,315.601 583.544,315.602 583.919 C 315.604 584.616,313.489 590.360,312.699 591.800 C 308.694 599.108,308.540 599.484,306.808 606.200 C 305.294 612.073,304.423 614.622,303.633 615.484 C 303.273 615.878,302.536 616.830,301.996 617.600 C 301.455 618.370,300.420 619.597,299.694 620.326 C 298.969 621.055,298.068 622.360,297.693 623.226 C 297.318 624.092,296.874 624.800,296.706 624.800 C 296.538 624.800,296.400 624.993,296.400 625.228 C 296.400 625.636,294.130 629.181,293.600 629.600 C 293.110 629.987,290.957 633.423,289.992 635.358 C 288.670 638.007,284.449 642.739,277.764 649.067 C 271.499 654.998,270.382 656.000,270.035 656.000 C 269.901 656.000,269.344 656.412,268.796 656.914 C 268.248 657.417,267.391 658.112,266.891 658.458 C 266.392 658.804,265.274 659.743,264.408 660.545 C 263.541 661.347,262.330 662.207,261.716 662.458 C 261.102 662.708,259.837 663.248,258.904 663.657 C 257.972 664.065,256.972 664.400,256.683 664.400 C 256.157 664.400,252.379 666.647,252.000 667.184 C 250.831 668.843,240.716 674.000,238.631 674.000 C 238.079 674.000,237.087 674.422,230.600 677.416 C 227.627 678.789,225.928 679.127,219.600 679.607 C 216.850 679.816,213.430 680.169,212.000 680.392 C 210.570 680.615,207.960 681.019,206.200 681.290 C 201.870 681.957,179.849 681.964,174.800 681.300 C 172.710 681.025,169.650 680.617,168.000 680.392 C 166.350 680.168,163.290 679.812,161.200 679.600 C 154.959 678.970,153.481 678.544,146.600 675.399 C 145.280 674.796,141.770 673.509,138.800 672.539 C 132.225 670.393,130.621 669.613,128.132 667.353 C 126.976 666.303,124.995 665.102,123.200 664.362 C 117.589 662.051,116.091 661.152,113.248 658.392 C 111.685 656.876,109.371 654.928,108.104 654.065 C 106.837 653.202,104.661 651.391,103.268 650.042 C 101.876 648.692,100.183 647.301,99.506 646.951 C 97.050 645.681,95.288 643.903,93.996 641.392 C 93.453 640.337,91.640 638.107,89.967 636.437 C 88.294 634.767,86.145 632.230,85.191 630.800 C 84.237 629.370,83.171 627.930,82.821 627.600 C 81.320 626.183,78.828 622.850,77.886 621.000 C 76.463 618.207,75.200 615.316,75.200 614.855 C 75.200 614.642,75.053 614.407,74.874 614.333 C 72.985 613.561,69.291 607.063,68.432 603.000 C 68.152 601.680,67.761 600.187,67.562 599.681 C 67.363 599.176,67.200 598.482,67.200 598.139 C 67.200 597.797,66.731 596.590,66.158 595.458 C 64.771 592.716,63.741 589.441,63.223 586.123 C 62.990 584.625,62.617 582.500,62.394 581.400 C 60.047 569.781,60.016 568.772,60.008 502.194 C 59.999 434.965,60.088 437.916,58.007 435.409 C 56.148 433.168,43.575 431.618,38.410 432.992 C 35.081 433.878,33.281 435.368,32.153 438.168 L 31.200 440.536 31.207 511.568 C 31.214 573.743,31.291 583.024,31.830 586.000 C 32.793 591.316,33.167 593.260,33.600 595.200 C 34.119 597.526,34.747 600.829,35.197 603.600 C 35.729 606.880,36.046 607.718,38.980 613.602 C 42.739 621.139,44.068 623.680,44.419 624.000 C 44.540 624.110,45.071 624.830,45.600 625.600 C 46.129 626.370,46.672 627.090,46.807 627.200 C 47.414 627.694,49.505 631.133,49.968 632.400 C 50.250 633.170,50.643 634.205,50.840 634.700 C 51.038 635.195,51.356 636.005,51.546 636.500 C 52.731 639.578,54.395 641.951,57.800 645.418 C 59.512 647.162,62.627 650.784,63.580 652.140 C 63.900 652.593,64.845 653.669,65.680 654.531 C 66.516 655.392,67.200 656.345,67.200 656.648 C 67.200 656.952,67.336 657.200,67.502 657.200 C 67.669 657.200,68.039 657.729,68.325 658.376 C 68.963 659.817,71.508 662.412,73.056 663.199 C 74.329 663.846,76.182 665.615,77.400 667.346 C 79.210 669.916,79.777 670.485,82.330 672.290 C 83.798 673.329,85.450 674.647,86.000 675.220 C 86.550 675.792,88.530 677.480,90.400 678.970 C 92.270 680.460,94.610 682.440,95.600 683.369 C 99.006 686.566,104.320 690.000,105.862 690.000 C 106.443 690.000,110.800 692.142,110.800 692.428 C 110.800 692.603,111.159 692.860,111.598 692.999 C 112.036 693.138,112.654 693.511,112.970 693.827 C 113.488 694.345,117.535 696.925,121.800 699.455 C 124.116 700.830,130.653 704.000,131.170 704.000 C 131.412 704.000,131.923 704.158,132.305 704.351 C 133.357 704.882,135.513 705.459,138.400 705.982 C 139.830 706.241,141.720 706.607,142.600 706.794 C 143.480 706.982,145.280 707.351,146.600 707.616 C 147.920 707.880,149.763 708.435,150.696 708.848 C 151.628 709.262,152.546 709.600,152.734 709.600 C 152.923 709.600,153.627 709.874,154.298 710.209 C 160.572 713.339,221.751 713.100,225.380 709.932 C 225.589 709.749,226.169 709.600,226.668 709.600 C 227.167 709.600,228.166 709.273,228.888 708.872 C 230.429 708.018,232.696 707.425,236.700 706.831 C 246.515 705.373,246.963 705.239,254.166 701.605 C 256.787 700.282,259.105 699.200,259.316 699.200 C 259.911 699.200,264.420 696.837,265.075 696.182 C 265.396 695.861,266.860 694.750,268.329 693.713 C 269.798 692.676,271.090 691.722,271.200 691.593 C 271.544 691.190,274.293 690.000,274.880 690.000 C 275.188 690.000,275.611 689.849,275.820 689.664 C 276.029 689.479,276.830 689.087,277.600 688.792 C 279.094 688.220,281.686 686.557,283.000 685.327 C 283.440 684.915,284.430 684.142,285.200 683.608 C 285.970 683.075,286.690 682.529,286.800 682.396 C 286.910 682.263,287.382 681.893,287.849 681.575 C 292.318 678.529,311.520 658.959,317.908 650.940 C 319.684 648.710,321.311 646.779,321.522 646.648 C 321.733 646.518,322.498 644.924,323.223 643.106 C 324.372 640.221,326.806 635.789,327.564 635.200 C 329.316 633.837,331.302 629.948,332.773 625.000 C 333.231 623.460,334.488 620.310,335.567 618.000 C 336.645 615.690,337.926 612.450,338.413 610.800 C 339.157 608.280,340.127 605.504,341.978 600.600 C 342.144 600.160,343.019 598.180,343.922 596.200 C 346.296 590.996,346.310 590.925,347.806 577.800 C 348.132 574.940,348.655 571.070,348.967 569.200 C 349.280 567.330,349.730 564.056,349.968 561.923 C 350.273 559.187,350.400 484.512,350.400 307.950 L 350.400 57.853 349.541 55.427 C 348.515 52.530,347.794 51.829,344.996 51.016 C 342.502 50.291,330.036 50.211,327.400 50.902 M269.025 53.906 C 269.918 54.364,271.134 55.439,271.727 56.294 L 272.804 57.849 272.655 307.225 C 272.549 483.093,272.377 557.661,272.071 560.200 C 271.833 562.180,271.535 565.420,271.409 567.400 C 270.847 576.250,270.088 581.272,269.202 582.000 C 269.068 582.110,268.663 582.830,268.303 583.600 C 267.942 584.370,267.008 585.674,266.227 586.498 C 264.627 588.184,263.668 590.119,262.410 594.200 C 261.546 597.002,258.959 601.272,257.442 602.400 C 256.998 602.730,255.997 603.687,255.218 604.526 C 254.438 605.366,252.180 607.749,250.200 609.822 C 248.220 611.896,245.827 614.449,244.883 615.496 C 243.178 617.386,240.787 619.200,240.001 619.200 C 239.634 619.200,237.358 620.140,234.907 621.304 C 234.415 621.537,233.695 622.019,233.307 622.375 C 232.918 622.731,231.970 623.460,231.200 623.995 C 230.430 624.531,229.348 625.444,228.796 626.024 C 228.244 626.604,227.074 627.323,226.196 627.621 C 225.318 627.919,224.429 628.307,224.220 628.482 C 224.011 628.657,223.434 628.800,222.939 628.800 C 222.443 628.800,221.624 628.957,221.119 629.149 C 220.613 629.341,219.480 629.726,218.600 630.006 C 217.720 630.285,216.092 630.926,214.983 631.431 C 213.873 631.935,210.453 633.205,207.383 634.253 L 201.800 636.158 190.200 636.068 C 177.960 635.974,175.255 635.630,170.600 633.577 C 168.408 632.610,163.302 630.796,161.600 630.379 C 158.316 629.574,154.521 627.910,151.856 626.106 C 150.285 625.042,148.508 623.924,147.907 623.622 C 147.305 623.319,146.495 622.786,146.107 622.436 C 145.718 622.086,144.950 621.593,144.400 621.340 C 141.519 620.014,139.574 619.200,139.290 619.200 C 139.114 619.200,138.077 618.364,136.985 617.342 C 133.391 613.979,129.007 609.685,128.600 609.128 C 127.839 608.087,121.799 601.399,121.500 601.267 C 121.335 601.193,121.200 600.957,121.200 600.741 C 121.200 600.041,118.651 595.022,117.877 594.200 C 114.406 590.510,112.431 586.189,111.254 579.700 C 111.004 578.325,110.592 576.075,110.338 574.700 C 110.084 573.325,109.566 571.480,109.186 570.600 C 108.044 567.955,107.425 565.891,106.429 561.400 C 106.116 559.986,105.985 541.913,105.981 499.723 L 105.977 440.046 107.288 438.277 C 109.563 435.209,122.895 434.351,128.083 436.939 C 132.415 439.099,132.000 431.947,132.000 504.415 C 132.000 573.247,131.858 568.408,134.037 573.919 C 134.237 574.424,134.400 575.235,134.400 575.721 C 134.400 578.827,137.185 583.989,140.800 587.582 C 141.790 588.566,143.095 590.148,143.699 591.098 C 145.221 593.490,147.166 595.349,149.374 596.525 C 150.403 597.073,152.001 598.308,152.923 599.269 C 156.038 602.516,161.485 606.000,163.445 606.000 C 163.792 606.000,164.554 606.254,165.138 606.565 C 176.274 612.492,202.998 612.818,213.090 607.149 C 213.917 606.685,215.670 605.961,216.984 605.541 C 219.763 604.653,220.922 603.982,222.661 602.253 C 226.096 598.839,227.520 597.633,228.826 597.033 C 230.330 596.343,234.547 592.495,236.748 589.804 C 238.173 588.063,239.324 585.728,240.337 582.526 C 240.704 581.366,244.552 575.274,245.216 574.800 C 245.754 574.417,247.687 570.388,248.048 568.899 C 249.133 564.420,249.197 549.929,249.194 311.048 C 249.192 174.894,249.306 62.104,249.448 60.403 C 249.693 57.460,249.789 57.220,251.440 55.423 L 253.174 53.534 257.487 53.202 C 263.793 52.716,267.097 52.918,269.025 53.906 M345.189 55.100 L 347.211 57.000 347.215 310.323 C 347.218 449.650,347.082 563.860,346.915 564.123 C 346.748 564.385,346.306 565.680,345.933 567.000 C 345.560 568.320,344.870 570.750,344.401 572.400 C 343.932 574.050,343.386 576.390,343.188 577.600 C 342.296 583.061,341.901 585.568,341.584 587.800 C 341.208 590.440,340.673 593.048,340.065 595.200 C 339.847 595.970,339.386 597.634,339.040 598.898 C 338.694 600.162,337.728 602.322,336.894 603.698 C 336.059 605.074,335.135 606.830,334.841 607.600 C 334.547 608.370,334.026 609.630,333.684 610.400 C 332.795 612.399,331.507 617.142,330.449 622.307 C 329.918 624.903,326.573 630.872,324.314 633.257 C 323.725 633.880,322.535 636.363,321.644 638.833 C 321.127 640.263,317.896 645.199,316.490 646.703 C 315.851 647.387,314.558 649.129,313.617 650.574 C 312.676 652.018,311.783 653.200,311.633 653.200 C 311.059 653.200,307.278 656.846,306.165 658.472 C 305.524 659.410,302.998 662.162,300.550 664.588 C 298.103 667.015,296.033 669.190,295.950 669.423 C 295.868 669.656,294.982 670.404,293.982 671.086 C 291.902 672.504,289.051 675.308,288.120 676.850 C 287.577 677.750,285.291 679.418,282.376 681.041 C 281.941 681.283,281.080 681.931,280.463 682.481 C 278.280 684.426,274.415 686.742,271.923 687.599 C 267.463 689.132,266.053 689.954,262.863 692.883 C 260.560 694.997,258.824 695.894,255.184 696.848 C 253.323 697.336,251.170 698.093,250.400 698.530 C 243.731 702.312,240.363 703.451,233.000 704.411 C 231.020 704.669,229.130 704.966,228.800 705.071 C 226.947 705.659,220.111 706.400,216.541 706.400 C 214.271 706.400,209.395 706.715,205.707 707.100 C 197.251 707.982,183.111 707.971,174.200 707.077 C 170.680 706.724,165.362 706.427,162.382 706.417 C 158.731 706.406,155.730 706.153,153.182 705.644 C 151.102 705.228,147.870 704.671,146.000 704.406 C 141.405 703.755,138.423 702.725,131.380 699.358 C 129.830 698.617,127.760 697.751,126.780 697.434 C 122.832 696.156,121.700 695.598,120.184 694.181 C 117.609 691.774,113.548 689.322,110.576 688.380 C 108.124 687.602,104.969 686.179,104.400 685.595 C 104.290 685.481,103.211 684.581,102.001 683.595 C 100.792 682.608,99.389 681.395,98.883 680.900 C 98.377 680.405,97.771 680.000,97.535 680.000 C 97.300 680.000,96.078 678.965,94.821 677.700 C 93.564 676.435,91.769 674.770,90.832 674.000 C 89.895 673.230,88.888 672.375,88.593 672.100 C 88.298 671.825,87.898 671.600,87.704 671.600 C 87.510 671.600,87.002 671.280,86.575 670.889 C 86.149 670.498,85.260 669.786,84.600 669.306 C 83.037 668.171,71.549 656.841,70.905 655.800 C 68.048 651.184,66.724 649.424,64.436 647.200 C 62.965 645.770,61.329 643.970,60.800 643.200 C 60.271 642.430,59.717 641.710,59.569 641.600 C 57.872 640.342,53.642 633.108,51.967 628.600 C 51.102 626.271,48.975 623.055,46.676 620.600 C 45.344 619.177,44.339 617.271,43.618 614.800 C 42.593 611.287,41.496 608.181,40.792 606.800 C 39.954 605.155,39.682 604.379,37.991 598.800 C 37.291 596.490,36.577 594.240,36.405 593.800 C 35.301 590.971,35.200 584.184,35.200 512.779 L 35.201 439.400 36.100 438.386 C 38.420 435.771,38.915 435.600,44.154 435.605 C 50.543 435.611,52.907 436.231,54.900 438.420 C 55.725 439.327,56.438 440.098,56.484 440.134 C 56.531 440.170,56.686 468.910,56.829 504.000 C 57.006 547.251,57.232 568.702,57.531 570.600 C 57.962 573.340,58.507 578.591,59.193 586.600 C 59.627 591.667,60.664 595.344,61.956 596.400 C 62.091 596.510,62.408 597.050,62.661 597.600 C 64.085 600.699,64.800 602.438,64.800 602.800 C 64.800 603.025,65.140 603.972,65.556 604.904 C 65.972 605.837,66.545 607.500,66.828 608.600 C 67.481 611.127,68.121 612.273,71.085 616.218 C 73.486 619.412,75.600 622.990,75.600 623.859 C 75.600 624.826,77.467 627.784,79.200 629.563 C 80.190 630.579,81.867 632.578,82.926 634.005 C 85.698 637.740,86.040 638.114,87.662 639.192 C 88.466 639.726,89.401 640.622,89.739 641.182 C 90.078 641.742,90.770 642.650,91.277 643.200 C 91.785 643.750,92.466 644.716,92.792 645.346 C 93.118 645.976,93.881 646.876,94.487 647.346 C 95.094 647.816,96.357 648.876,97.295 649.703 C 98.233 650.530,99.270 651.297,99.600 651.409 C 99.930 651.520,100.716 652.342,101.348 653.236 C 101.979 654.130,102.924 655.056,103.448 655.295 C 103.971 655.533,104.400 655.880,104.400 656.064 C 104.400 656.249,104.664 656.400,104.987 656.400 C 105.310 656.400,107.025 657.839,108.798 659.598 C 112.497 663.267,113.397 663.919,116.055 664.855 C 118.363 665.668,123.784 668.840,125.655 670.472 C 127.365 671.964,128.699 672.671,131.532 673.587 C 132.780 673.991,134.880 674.855,136.200 675.507 C 147.297 680.993,148.129 681.237,159.800 682.420 C 162.220 682.666,164.830 683.024,165.600 683.216 C 170.885 684.534,176.257 685.704,180.167 686.387 C 188.731 687.883,204.690 686.466,213.200 683.455 C 214.206 683.099,217.646 682.629,221.000 682.391 C 228.992 681.822,233.460 681.080,235.695 679.951 C 236.077 679.758,236.569 679.600,236.789 679.600 C 237.353 679.600,246.266 675.267,246.904 674.683 C 247.726 673.930,249.132 673.200,249.761 673.200 C 250.285 673.200,256.337 669.394,256.800 668.773 C 256.910 668.626,257.900 668.030,259.000 667.449 C 260.100 666.868,261.270 666.230,261.600 666.031 C 261.930 665.832,263.280 665.173,264.600 664.566 C 265.920 663.960,267.090 663.358,267.200 663.230 C 267.310 663.101,268.120 662.463,269.000 661.811 C 269.880 661.160,271.557 659.676,272.726 658.513 C 273.895 657.351,275.005 656.400,275.193 656.400 C 275.742 656.400,281.766 650.584,282.353 649.489 C 282.647 648.938,283.273 648.312,283.744 648.097 C 285.470 647.308,288.859 643.841,290.432 641.255 C 292.025 638.637,295.439 633.687,296.625 632.275 C 297.191 631.602,297.802 630.371,299.352 626.774 C 299.691 625.990,301.460 623.728,303.284 621.748 C 306.550 618.203,308.400 614.724,308.400 612.127 C 308.400 611.705,308.552 611.189,308.738 610.980 C 308.923 610.771,309.491 609.520,310.000 608.200 C 310.509 606.880,311.077 605.629,311.262 605.420 C 311.448 605.211,311.600 604.809,311.600 604.528 C 311.600 604.246,312.304 602.527,313.164 600.708 C 314.751 597.352,316.400 592.752,316.400 591.680 C 316.400 591.356,317.145 589.541,318.056 587.646 C 320.245 583.088,320.288 582.981,321.030 580.200 C 321.381 578.880,321.851 577.170,322.073 576.400 C 322.295 575.630,322.639 571.670,322.836 567.600 C 323.034 563.530,323.400 558.580,323.651 556.600 C 323.985 553.956,324.145 487.280,324.255 305.600 C 324.389 82.447,324.465 58.071,325.028 56.884 C 325.380 56.142,326.469 55.056,327.526 54.392 L 329.400 53.215 336.283 53.208 L 343.166 53.200 345.189 55.100 " stroke="none" fill="#c6d9cc" fill-rule="evenodd"></path></g></svg>